<?xml version="1.0" encoding="utf-8"?>
<!-- Generator: Adobe Illustrator 24.1.2, SVG Export Plug-In . SVG Version: 6.00 Build 0)  -->
<svg version="1.1" id="Layer_1" xmlns="http://www.w3.org/2000/svg" xmlns:xlink="http://www.w3.org/1999/xlink" x="0px" y="0px"
	 viewBox="0 0 1000 467.85" style="enable-background:new 0 0 1000 467.85;" xml:space="preserve">
<style type="text/css">
	.st0{fill:none;}
	.st1{fill:none;}
	.st2{fill:none;stroke:#000000;stroke-miterlimit:10;}
	.st3{fill:none;stroke:#000000;stroke-width:2;stroke-miterlimit:10;}
	.st4{fill:none;stroke:#000000;stroke-width:3;stroke-miterlimit:10;}
	.st5{fill:none;stroke:#000000;stroke-width:2;stroke-miterlimit:10;}
</style>
<g>
	<path class="st0" d="M0,406.84C0,226.42,0,46,0-134.42c333.33,0,666.67,0,1000,0c0,200.8,0,401.61,0,602.41
		c-331.83,0-663.66,0-995.49-0.04c-1.5,0-3.01-0.63-4.51-0.96c332.88,0,665.76,0,998.66,0c0-20.4,0-40.18,0-60.48
		c-5.76,0-11.19,0-16.43,0c-0.49-7-1.12-13.45-1.36-19.91c-0.36-9.7-0.24-9.71,8.99-13.1c1.1-0.4,2.2-0.78,3.28-1.24
		c5.28-2.25,5.86-5.99,1.38-10.4c-1.16,0.99-2.33,2-3.59,3.07c-0.9-1.12-1.64-2.05-2.46-3.08c-1.16,1.55-2.12,2.84-3.06,4.1
		c-6.26-1.62-6.79-6.3-6.36-11.58c-7.44,1.32-12.53,8.73-19.81,6.83c-0.16-2.88-0.3-5.36-0.44-7.85c-1.99,0.32-3.98,0.65-6.17,1.01
		c-0.43-0.57-1.11-1.48-1.93-2.56c-1.03,1.62-1.8,2.84-2.55,4.01c-5.88-1.71-6.29-2.41-6.68-11.03c-2.71,0.63-5.5,1.27-8.62,2
		c-1.08,5.24-21.01,7.31-29.19,2.24c0.45-1.59,0.9-3.18,1.36-4.77c0,0-0.14,0.15-0.14,0.15c1.41-0.77,2.83-1.54,4.27-2.33
		c0.65,0.66,1.15,1.59,1.91,1.97c1.3,0.65,2.75,1.13,4.18,1.25c0.3,0.02,0.75-1.87,1.13-2.88c-1.37-0.51-2.72-1.3-4.13-1.42
		c-1.03-0.08-2.14,0.73-3.21,1.14c-0.33-1.96-0.66-3.92-0.98-5.87l-0.15,0.15c0.57-1.52,1.29-3,1.68-4.57
		c1.38-5.52,1.75-5.62,6.51-2.35c0.83,0.57,2.73,0.69,3.37,0.14c0.7-0.61,1.08-2.87,0.61-3.29c-0.84-0.75-2.43-0.84-3.71-0.85
		c-1.73-0.01-3.46,0.32-6.31,0.62c1.48-5.79,3.24-10.05,3.48-14.39c0.2-3.64-1.48-7.36-2.07-11.08c-0.17-1.04,0.23-2.67,0.97-3.21
		c0.75-0.56,2.24-0.1,3.41-0.11c1.41-0.02,2.83-0.08,4.24-0.12c-0.11-1.2-0.23-2.4-0.34-3.6c-1.39,0.22-3.28-0.04-4.09,0.76
		c-2.47,2.46-4.24,1.96-6.02-0.58c-0.42-2.28-0.84-4.56-1.26-6.84c0.3-1.89,0.6-3.79,0.91-5.67c1.22,0.44,2.42,1.2,3.62,1.2
		c1.1,0,2.71-0.57,3.13-1.38c0.39-0.76-0.17-2.72-0.91-3.15c-0.81-0.47-2.49-0.12-3.41,0.46c-1,0.63-1.56,1.94-2.31,2.95
		c-1.23-0.28-2.47-0.57-3.7-0.85c-0.16-0.55-0.31-1.11-0.47-1.66c-2.4-4.78-2.86-10.73-8.2-13.76c-1.18-2.05-2.35-4.1-3.53-6.14
		c-0.81-1.15-1.61-2.31-2.43-3.46c-2.65-3.72-8-5.37-8.28-10.65c-1.06,0.2-2.15,0.4-3.25,0.61c-2.19-1.61-4.38-3.22-6.57-4.83
		c-0.91-1.48-1.83-2.95-2.81-4.54c-0.45,0.23-1.54,0.79-2.64,1.36c-1.76-0.9-3.53-1.81-5.29-2.71c-1.99-1.54-3.99-3.09-6.03-4.67
		c-0.56,0.19-1.93,0.64-3.31,1.09c-1.85-0.46-3.71-0.92-5.56-1.39c-1.93-1.22-3.85-2.43-5.63-3.55c-2.81,2.89-6.27,0.6-9.46,0.38
		c-5.68-0.39-5.61-0.52-3.36-5.5c0.48-1.06,0.05-2.76-0.49-3.91c-0.19-0.4-2.71-0.39-2.91,0.02c-0.55,1.15-0.97,2.87-0.48,3.92
		c2.26,4.81,2.24,4.99-2.83,5.48c-1.98,0.19-3.95,0.74-5.92,0.75c-1.5,0-3-0.6-4.32-0.89c-1.02,0.62-2.2,1.44-3.47,2.09
		c-1.82,0.94-3.71,1.77-5.57,2.65c-0.82,0.08-1.63,0.16-2.45,0.24c-1.24-0.63-2.47-1.27-2.99-1.53c-1.88,1.79-3.65,3.46-5.41,5.13
		c-1.86,0.72-3.72,1.44-5.59,2.16c-1.2-0.42-2.41-0.84-2.83-0.99c-0.93,1.71-1.75,3.22-2.57,4.73c-2.23,1.46-4.45,2.93-6.68,4.39
		c-3.8-0.27-4.18,3.43-6.14,5.3c-0.95,0.95-1.9,1.89-2.86,2.84c-1.85,0.39-3.24,4.83-5.62,0.64c-1.54-1.46-3.07-2.93-4.6-4.4
		c-0.57,1.07-1.86,2.41-1.58,3.17c1.29,3.57,3.95,1.69,6.23,1.18c0.31,1.49,0.61,2.99,0.92,4.48c-1.76,2.64-3.53,5.27-5.29,7.91
		c-1.75,0.42-3.5,0.84-5.25,1.26c-0.86-2.04-0.15-5.57-4.04-4.75c-0.79,0.17-1.92,2.1-1.74,2.98c0.85,4.02,3.8,1.5,5.93,1.6
		c2.47,1.7,1.96,3.84,0.89,6.06c-0.92,2.12-1.85,4.24-2.77,6.36c-1.15,0.37-2.31,0.74-3.49,1.12c-0.72-0.56-1.34-1.33-2.13-1.67
		c-1.43-0.61-2.96-0.97-4.45-1.43c-0.27,1.03-0.54,2.06-0.81,3.09c1.55,0.3,3.1,0.76,4.66,0.83c0.92,0.04,1.87-0.54,2.8-0.84
		c-0.02,2.95-0.04,5.9-0.06,8.86c0,0,0.15-0.17,0.15-0.17c-0.21,0.24-0.54,0.45-0.62,0.73c-1.75,6.14-1.7,6.06-7.16,2.97
		c-0.81-0.46-2.59-0.12-3.35,0.53c-0.58,0.49-0.67,2.71-0.22,3c1.01,0.65,2.9,1.22,3.69,0.7c3.34-2.2,4.8-1.08,5.41,2.4l0.13-0.15
		c-0.67,3.95-1.34,7.9-2.09,12.39c0.27,0.91,0.91,2.58,1.24,4.32c0.41,2.21,0.57,4.47,0.84,6.71c0,0-0.13-0.14-0.13-0.14
		c-1.14,1.1-2.69,3.36-3.34,3.12c-4.87-1.75-10.84-0.51-14.64-5.42c-0.77-1-3-1.2-4.55-1.21c-15.53-0.09-31.07-0.12-46.6,0.03
		c-1.82,0.02-3.98,0.72-5.37,1.85c-6.86,5.56-14.61,6.59-22.97,5.15c-0.96-0.17-1.92-0.36-2.86-0.54c-0.73,1.13-1.39,2.17-2.16,3.37
		c1.77,0.78,3.46,1.44,5.08,2.24c1.79,0.88,3.52,1.88,5.29,2.81c6.74,3.55,7.08,4.18,6.06,11.58c-0.15,1.12-0.56,2.2-0.8,3.11
		c-2.44,2.34-4.72-1.78-7.78,0.46c-2.07,1.51-6.13,0.29-10.46,0.29c1.96-2.43,2.98-3.68,4.12-5.1c-2.07-2.07-2.86-7.16-7.17-2.2
		c-0.53,0.61-2.24,0.23-3.4,0.24c-6.01,0.02-12.03,0.09-18.04,0c-10.15-0.15-20.09-0.75-22.02-12.71c-1.24,2.14-2.18,5.48-4.39,7.22
		c-4.72,3.71-10.39,4.91-16.51,3.81c-1.28-0.23-3.06,0.7-4.22,1.6c-3.88,3.01-0.46,6.51-0.44,9.8c0.05,12.85,0.04,25.71-0.01,38.56
		c0,0.92-0.45,1.84-0.65,2.63c-4.22,0-8.15,0.24-12.04-0.11c-1.79-0.16-4.76-1.21-5-2.32c-2.7-12.68-4.98-25.45-7.44-38.56
		c-0.95,0.24-2.67,0.68-5.47,1.38c2.27-2.61,3.87-4.28,5.26-6.12c0.68-0.9,1.35-2.14,1.27-3.16c-0.04-0.5-1.77-1.16-2.78-1.26
		c-3.36-0.32-6.74-0.42-9.37-0.57c2.6-3.33,5.2-6.67,8.08-10.37c-0.97-0.51-1.86-1.27-2.86-1.44c-2.94-0.5-6.43,0.1-8.81-1.28
		c-8.12-4.72-15.97-9.96-23.69-15.32c-3.01-2.09-5.49-4.94-3.41-9.3c0.29-0.61-0.49-2.36-1.17-2.66c-1.08-0.47-2.64-0.49-3.74-0.05
		c-0.71,0.29-1.6,2.03-1.32,2.6c2.23,4.65-0.82,7.2-3.7,9.77c-9.14,8.15-18.68,15.53-31.7,16.18c-1.03,0.05-2,1.21-3,1.85
		c0.56,0.79,1.08,1.62,1.68,2.38c2.04,2.58,4.11,5.15,6.13,7.66c-2.5,0.13-5.9,0.2-9.27,0.56c-1.12,0.12-2.17,1-3.25,1.53
		c0.51,0.93,0.92,1.94,1.55,2.77c1.48,1.96,3.07,3.84,4.96,6.19c-2.75-0.62-4.51-1.02-5.49-1.23c-0.83,4.4-1.36,8.15-2.28,11.81
		c-0.61,2.41-1.78,4.68-2.69,7.02c-15.97-12.81-31.94-25.62-47.92-38.43c-1.77-3.64-3.54-7.27-5.82-11.97
		c-3.83,7.25-7.11,13.45-10.39,19.64c-4.72,5.29-9.45,10.58-14.17,15.87c-8.91,9.22-17.81,18.43-26.72,27.65
		c-0.59-0.74-1.69-1.46-1.7-2.21c-0.17-6.76-1.4-14.01,8.16-17.49c-2.51-0.93-3.68-1.51-4.92-1.8c-4.49-1.07-9.03-1.91-13.48-3.13
		c-1.34-0.37-3.15-1.53-3.39-2.63c-0.25-1.12,0.96-2.79,1.91-3.89c1.18-1.38,2.75-2.43,4.15-3.62c-2.64-2.93-8.51,1.14-8.54-4.17
		c-0.01-2.43,3.31-4.88,5.57-7.94c-2.33-0.46-5.52-0.46-8.11-1.71c-8.98-4.33-17.8-9.01-26.59-13.72c-3.09-1.65-6.08-3.64-5.1-8.09
		c0.08-0.35-1.22-1-3.07-2.43c1.81,6.97-2.3,9.24-6.27,11.42c-4,2.2-8.1,4.23-12.27,6.1c-5.77,2.58-11.64,4.94-17.48,7.38
		c-1.38,0.57-2.79,1.06-4.59,1.74c2.21,1.63,4,2.53,5.18,3.94c0.91,1.08,1.56,2.88,1.36,4.21c-0.12,0.77-2.11,1.44-3.36,1.79
		c-1.63,0.44-3.35,0.51-6.16,0.89c1.44,1.25,1.93,1.57,2.29,2c1.67,1.98,3.31,3.99,4.96,5.99c-2.11,1.18-4.18,2.47-6.36,3.51
		c-1.18,0.56-2.56,0.7-3.86,1.02c-3.51,0.85-7.02,1.7-10.82,2.62c2.65,2.34,6.06,3.88,6.33,5.85c1.05,7.8,1.11,15.73,1.55,23.61
		c-0.65,0.08-1.3,0.17-1.95,0.25c-1.74-5.5-3.49-10.99-5.23-16.49c-0.61,0.08-1.21,0.16-1.82,0.25c-0.19,9.6-8.72,18.31-1.95,28.71
		c-3.05,0-5.91,0-8.91,0c3.93-7.63,2.16-23-3.54-29.09c-1.94,7.01-3.9,13.68-5.57,20.43c-0.31,1.25,0.38,2.86,0.91,4.18
		c0.6,1.48,1.56,2.81,2.52,4.5c-2.79,0-5.03,0-7.28,0c-1.28-10.3-2.34-20.35-3.86-30.34c-0.52-3.39,1-4.34,3.59-5.37
		c3.67-1.47,7.54-2.85,10.66-5.18c2.11-1.57,3.05-4.69,4.52-7.12c-0.46-0.33-0.91-0.66-1.37-0.99c-5.98,2.59-11.25,7.77-18.53,5.6
		c-3.77-18.56-2.15-37.62-8.74-55.66c-1.9-5.21-0.65-12.92,1.97-18.03c2.4-4.69-0.66-4.16-2.48-5.37
		c0.63-6.51,0.39-13.06,2.16-19.02c1.06-3.56,2.29-5.35-2.18-6.03c0.65-6.67,0.19-13.36,2.27-19.15c1.35-3.78,1.84-4.9-2.56-5.54
		c1.09-8.02,2.13-15.73,3.25-24.01c-0.32-0.13-1.59-0.65-3.04-1.24c0.9-7.97,1.76-15.69,2.69-23.88c-0.15-0.07-1.4-0.64-2.8-1.29
		c1.01-7.88,1.98-15.45,3.04-23.64c-0.2-0.08-1.46-0.61-2.95-1.23c0.93-7.93,1.83-15.65,2.79-23.83c-0.11-0.04-1.29-0.46-2.75-0.98
		c0.85-7.89,1.68-15.63,2.63-24.42c-2.23-1.14-5.92-2.99-9.56-4.93c-0.49-0.26-0.92-0.97-1.05-1.54c-0.76-3.37-1.43-6.76-2.11-10.01
		c-1.77,0.2-2.79,0.32-3.92,0.45c-0.8-9.41,4-18.07,1.41-27.25c-5.99-2.83-6.37-3.89-5.32-13.53c-1.34-2.03-2.72-4.19-2.87-6.43
		c-0.4-5.99-0.27-12.02-0.33-18.03c-0.03-2.82,0-5.65,0-8.48c-0.57-0.01-1.15-0.02-1.72-0.03c-0.12,1.52-0.33,3.03-0.35,4.55
		c-0.11,7.01,0.06,14.04-0.37,21.03c-0.17,2.71-1.63,5.35-2.51,8.02c-0.96,0.67-0.1,1.73-0.34,2.43c-1.01,3,2.25,7.2-2.54,9.12
		c-1.9,0.76-5.61,10.27-4.37,11.84c3.86,4.88,2.36,10.64,2.98,16.05c0.02,0.2-0.36,0.45-1.57,1.86c-0.38-1.54-0.73-2.96-1.08-4.38
		c-0.73,0.5-1.46,1-2.19,1.5c0.6,1.84,1.2,3.68,1.83,5.61c-1.2,0.62-2.51,1.29-3.82,1.96c0.31,2.11,0.01,4.38-1.22,5.15
		c-3.61,2.27-7.59,3.93-10.1,5.18c0.85,6.94,1.54,12.56,2.21,18.18c0.4,3.33,1.01,6.76-3.34,8.07c4.31,6.76,4.3,22.1,1.37,24.26
		c0.71,6.51,1.62,12.3,1.86,18.12c0.11,2.69-1.09,5.43-1.79,8.58c0.79,6.7,1.67,14.15,2.44,20.67c-1.61,1.95-3.59,3.27-3.46,4.35
		c0.7,5.77,2.01,11.46,2.92,17.21c0.45,2.84,1.17,6.06-2.04,6.38c0.78,7.5,1.53,14.61,2.25,21.72c0.05,0.48,0.02,1.34-0.18,1.41
		c-4.86,1.59-1.68,4.22-1.26,6.9c0.95,6.06,1.14,12.25,1.65,18.55c-3.02,0.78-5.68,1.73-1.86,4.84c0.3,0.25,0.37,0.96,0.32,1.43
		c-0.7,6.82,2.57,13.35-0.47,20.66c-2.75,6.63-2.59,14.51-3.46,21.87c-0.81,6.85-1.24,7.42-8.23,7.43
		c-17.62,0.02-35.24,0.06-52.86-0.04c-3.84-0.02-7.67-0.58-11.94-0.92c2.09,10.28-6.07,14.43-13.69,17.88
		c-15.8,7.16-32,10.3-48.81-0.6c0.38,2.13,0.41,3.38,0.84,4.49c2.25,5.84,7.52,7.73,12.84,9.18c3.49,0.95,5.12,2.5,4.67,6.27
		c-1.18,9.93-2.18,19.88-3.26,29.98C10.68,406.84,5.34,406.84,0,406.84z M121.11,299.23c-1.92-0.9-3.67-1.76-5.45-2.57
		c-1.89-0.85-3.8-1.64-6.08-2.62c0,3.52,0,6.32,0,9.39c5.23-3.16,7.5,2.49,11.53,3.83C121.11,304.33,121.11,301.73,121.11,299.23z
		 M910.83,265.34c-1.91-1.25-3.16-2.69-4.04-2.49c-1.05,0.24-2.31,1.81-2.47,2.94c-0.1,0.71,1.68,2.35,2.61,2.34
		C907.97,268.13,909,266.74,910.83,265.34z M901.73,252.54c-1.88-1.38-3.02-2.86-4-2.76c-1.03,0.1-2.31,1.59-2.68,2.73
		c-0.18,0.56,1.46,2.44,2.24,2.42C898.49,254.89,899.66,253.73,901.73,252.54z M923.15,311.87c-1.85-1.47-3-3.04-3.87-2.9
		c-1.06,0.17-2.34,1.65-2.65,2.8c-0.17,0.62,1.46,2.39,2.35,2.45C920.04,314.29,921.18,313.07,923.15,311.87z M771.59,240.85
		c-2-1.21-3.2-2.52-4.17-2.37c-0.95,0.15-1.67,1.79-2.49,2.77c1.05,0.76,2.02,1.95,3.17,2.14
		C768.84,243.51,769.83,242.19,771.59,240.85z M738.59,311.68c-1.88-1.34-3.05-2.81-4.03-2.69c-0.96,0.11-2.22,1.75-2.42,2.88
		c-0.12,0.69,1.54,2.41,2.35,2.38C735.62,314.2,736.7,312.94,738.59,311.68z M862.57,224.87c-1.99-1.24-3.1-2.44-4.21-2.45
		c-0.87,0-2.56,1.67-2.43,2.28c0.24,1.1,1.51,2.65,2.47,2.74C859.42,227.55,860.59,226.18,862.57,224.87z M799.33,224.73
		c-2-1.16-3.14-2.33-4.24-2.29c-0.87,0.03-1.69,1.54-2.53,2.4c0.95,0.93,1.82,2.47,2.87,2.61
		C796.35,227.57,797.48,226.1,799.33,224.73z"/>
	<path d="M908.06,336.26c0.33,1.96,0.66,3.92,0.98,5.87c0,0,0.1-0.04,0.1-0.04c-1.41,0.77-2.83,1.54-4.25,2.32
		c-1.45-6.36-7.17-3.24-10.83-4.56c-0.82-0.29-2.69,2.36-4.14,3.71c3.31,0.87,5.52,1.48,7.74,2.02c1.59,0.39,3.21,0.69,5.55,1.18
		c0.13-0.18,0.98-1.35,1.83-2.51c-0.45,1.59-0.91,3.18-1.36,4.77c8.18,5.07,28.1,3,29.19-2.24c3.12-0.72,5.91-1.37,8.62-2
		c0.39,8.62,0.79,9.32,6.68,11.03c0.74-1.17,1.52-2.39,2.55-4.01c0.81,1.08,1.5,2,1.93,2.56c2.2-0.36,4.19-0.68,6.17-1.01
		c0.14,2.49,0.28,4.97,0.44,7.85c7.27,1.9,12.36-5.51,19.81-6.83c-0.43,5.28,0.09,9.96,6.36,11.58c0.94-1.26,1.9-2.55,3.06-4.1
		c0.82,1.02,1.57,1.96,2.46,3.08c1.25-1.07,2.43-2.08,3.59-3.07c4.48,4.41,3.9,8.15-1.38,10.4c-1.07,0.46-2.18,0.83-3.28,1.24
		c-9.24,3.4-9.35,3.4-8.99,13.1c0.24,6.46,0.87,12.91,1.36,19.91c5.24,0,10.67,0,16.43,0c0,20.3,0,40.08,0,60.48
		c-332.9,0-665.78,0-998.66,0c0-20.05,0-40.09,0-60.14c5.34,0,10.68,0,16.91,0c1.09-10.1,2.08-20.05,3.26-29.98
		c0.45-3.77-1.19-5.31-4.67-6.27c-5.32-1.45-10.59-3.34-12.84-9.18c-0.43-1.11-0.46-2.36-0.84-4.49c16.8,10.91,33.01,7.77,48.81,0.6
		c7.61-3.45,15.78-7.6,13.69-17.88c4.26,0.35,8.1,0.9,11.94,0.92c17.62,0.1,35.24,0.06,52.86,0.04c6.99-0.01,7.42-0.58,8.23-7.43
		c0.87-7.36,0.71-15.24,3.46-21.87c3.04-7.31-0.22-13.84,0.47-20.66c0.05-0.47-0.02-1.18-0.32-1.43c-3.82-3.11-1.16-4.06,1.86-4.84
		c-0.51-6.3-0.71-12.48-1.65-18.55c-0.42-2.68-3.6-5.31,1.26-6.9c0.2-0.06,0.22-0.93,0.18-1.41c-0.72-7.11-1.47-14.22-2.25-21.72
		c3.21-0.31,2.49-3.53,2.04-6.38c-0.91-5.75-2.22-11.44-2.92-17.21c-0.13-1.07,1.85-2.4,3.46-4.35c-0.77-6.52-1.65-13.97-2.44-20.67
		c0.7-3.15,1.9-5.89,1.79-8.58c-0.24-5.82-1.15-11.61-1.86-18.12c2.93-2.17,2.94-17.5-1.37-24.26c4.35-1.31,3.74-4.74,3.34-8.07
		c-0.67-5.62-1.37-11.24-2.21-18.18c2.51-1.25,6.5-2.91,10.1-5.18c1.24-0.78,1.54-3.05,1.22-5.15c1.31-0.67,2.62-1.35,3.82-1.96
		c-0.63-1.93-1.23-3.77-1.83-5.61c0.73-0.5,1.46-1,2.19-1.5c0.35,1.42,0.7,2.84,1.08,4.38c1.21-1.41,1.59-1.66,1.57-1.86
		c-0.62-5.41,0.87-11.17-2.98-16.05c-1.24-1.57,2.47-11.07,4.37-11.84c4.79-1.92,1.53-6.12,2.54-9.12c0.24-0.7-0.62-1.76,0.34-2.43
		c0.87-2.67,2.34-5.31,2.51-8.02c0.43-6.99,0.26-14.02,0.37-21.03c0.02-1.52,0.23-3.04,0.35-4.55c0.57,0.01,1.15,0.02,1.72,0.03
		c0,2.83-0.02,5.65,0,8.48c0.06,6.01-0.06,12.04,0.33,18.03c0.15,2.24,1.53,4.4,2.87,6.43c-1.05,9.64-0.68,10.7,5.32,13.53
		c2.59,9.18-2.21,17.84-1.41,27.25c1.13-0.13,2.15-0.25,3.92-0.45c0.67,3.25,1.34,6.64,2.11,10.01c0.13,0.57,0.55,1.28,1.05,1.54
		c3.64,1.94,7.33,3.79,9.56,4.93c-0.94,8.78-1.78,16.52-2.63,24.42c1.46,0.52,2.65,0.94,2.75,0.98c-0.96,8.18-1.86,15.91-2.79,23.83
		c1.49,0.62,2.75,1.14,2.95,1.23c-1.05,8.19-2.02,15.76-3.04,23.64c1.4,0.64,2.64,1.22,2.8,1.29c-0.92,8.19-1.79,15.91-2.69,23.88
		c1.45,0.59,2.72,1.11,3.04,1.24c-1.12,8.28-2.16,15.99-3.25,24.01c4.4,0.65,3.92,1.77,2.56,5.54c-2.07,5.79-1.62,12.48-2.27,19.15
		c4.47,0.68,3.24,2.47,2.18,6.03c-1.77,5.95-1.53,12.51-2.16,19.02c1.82,1.21,4.88,0.68,2.48,5.37c-2.62,5.12-3.87,12.82-1.97,18.03
		c6.58,18.04,4.96,37.1,8.74,55.66c7.28,2.17,12.56-3.01,18.53-5.6c0.46,0.33,0.91,0.66,1.37,0.99c-1.47,2.43-2.41,5.55-4.52,7.12
		c-3.11,2.32-6.98,3.71-10.66,5.18c-2.6,1.04-4.11,1.98-3.59,5.37c1.52,9.98,2.58,20.04,3.86,30.34c2.25,0,4.49,0,7.28,0
		c-0.97-1.69-1.92-3.02-2.52-4.5c-0.54-1.32-1.22-2.93-0.91-4.18c1.67-6.75,3.63-13.42,5.57-20.43c5.69,6.09,7.47,21.47,3.54,29.09
		c3,0,5.86,0,8.91,0c-6.77-10.4,1.77-19.11,1.95-28.71c0.61-0.08,1.21-0.16,1.82-0.25c1.74,5.5,3.49,10.99,5.23,16.49
		c0.65-0.08,1.3-0.17,1.95-0.25c-0.43-7.88-0.49-15.81-1.55-23.61c-0.27-1.97-3.68-3.51-6.33-5.85c3.8-0.92,7.31-1.76,10.82-2.62
		c1.3-0.32,2.68-0.46,3.86-1.02c2.18-1.04,4.25-2.32,6.36-3.51c-1.65-2-3.29-4.01-4.96-5.99c-0.36-0.43-0.85-0.75-2.29-2
		c2.8-0.38,4.53-0.45,6.16-0.89c1.25-0.34,3.24-1.02,3.36-1.79c0.2-1.33-0.45-3.13-1.36-4.21c-1.18-1.41-2.97-2.31-5.18-3.94
		c1.8-0.68,3.21-1.17,4.59-1.74c5.84-2.44,11.71-4.8,17.48-7.38c4.17-1.86,8.27-3.9,12.27-6.1c3.97-2.18,8.08-4.45,6.27-11.42
		c1.85,1.43,3.15,2.08,3.07,2.43c-0.98,4.44,2.01,6.43,5.1,8.09c8.79,4.71,17.61,9.39,26.59,13.72c2.59,1.25,5.77,1.25,8.11,1.71
		c-2.26,3.06-5.58,5.51-5.57,7.94c0.03,5.31,5.9,1.24,8.54,4.17c-1.39,1.19-2.96,2.24-4.15,3.62c-0.95,1.1-2.15,2.77-1.91,3.89
		c0.24,1.1,2.06,2.26,3.39,2.63c4.44,1.22,8.99,2.06,13.48,3.13c1.24,0.29,2.41,0.87,4.92,1.8c-9.56,3.48-8.33,10.73-8.16,17.49
		c0.02,0.75,1.11,1.47,1.7,2.21c-0.55,1.53-1.1,3.06-2.18,6.07c3.87-1.65,6.29-2.68,8.71-3.72c1.1-0.08,2.19-0.16,3.29-0.24
		c5.48-0.56,10.98-1.08,16.45-1.74c0.61-0.07,1.42-0.91,1.61-1.56c2.56-8.54,5.03-17.1,7.53-25.66c2.04-4.83,4.12-9.65,6.06-14.52
		c0.22-0.56-0.37-1.43-0.58-2.16c3.28-6.2,6.55-12.39,10.39-19.64c2.28,4.69,4.05,8.33,5.82,11.97c-1.06-0.21-2.11-0.41-3.4-0.67
		c0.1,1.67,0.17,2.93,0.25,4.2c0,0,0.02-0.01,0.02-0.01c-2.88,1.74-1.19,3.72-0.29,5.65c-0.89,0.82-2.39,1.52-2.57,2.47
		c-0.89,4.65-1.61,9.34-2.04,14.05c-0.71,7.84-1.16,15.71-1.66,22.71c9.77,0,18.47,0.03,27.18-0.07c0.51-0.01,1.01-1.03,1.52-1.58
		c4.47,2.35,6.11,2.24,7.53-0.47c2.09,0.99,3.98,4.2,6.49,0.59c3.17,0.14,6.35,0.27,9.52,0.41c1.63,0.22,3.25,0.44,4.88,0.65
		c-0.18-1.17-0.36-2.34-0.54-3.51c0.34-2,0.69-4,1.03-6c0.92-2.33,2.08-4.61,2.69-7.02c0.92-3.65,1.45-7.41,2.28-11.81
		c0.97,0.22,2.74,0.62,5.49,1.23c-1.9-2.35-3.48-4.23-4.96-6.19c-0.63-0.84-1.04-1.84-1.55-2.77c1.08-0.53,2.12-1.4,3.25-1.53
		c3.37-0.36,6.77-0.43,9.27-0.56c-2.01-2.51-4.08-5.07-6.13-7.66c-0.6-0.76-1.12-1.58-1.68-2.38c1-0.64,1.97-1.8,3-1.85
		c13.02-0.64,22.56-8.02,31.7-16.18c2.88-2.57,5.92-5.12,3.7-9.77c-0.27-0.57,0.61-2.31,1.32-2.6c1.1-0.44,2.66-0.42,3.74,0.05
		c0.69,0.3,1.46,2.05,1.17,2.66c-2.08,4.37,0.4,7.22,3.41,9.3c7.73,5.36,15.57,10.6,23.69,15.32c2.37,1.38,5.86,0.78,8.81,1.28
		c0.99,0.17,1.89,0.93,2.86,1.44c-2.88,3.7-5.48,7.04-8.08,10.37c2.64,0.15,6.01,0.25,9.37,0.57c1.01,0.1,2.74,0.75,2.78,1.26
		c0.08,1.03-0.59,2.26-1.27,3.16c-1.39,1.83-2.99,3.5-5.26,6.12c2.8-0.71,4.52-1.14,5.47-1.38c2.46,13.1,4.74,25.88,7.44,38.56
		c0.24,1.11,3.21,2.16,5,2.32c3.88,0.35,7.82,0.11,12.04,0.11c0.2-0.79,0.65-1.71,0.65-2.63c0.05-12.85,0.07-25.71,0.01-38.56
		c-0.01-3.3-3.44-6.8,0.44-9.8c1.16-0.9,2.93-1.83,4.22-1.6c6.13,1.11,11.8-0.1,16.51-3.81c2.21-1.74,3.15-5.08,4.39-7.22
		c1.93,11.96,11.87,12.56,22.02,12.71c6.01,0.09,12.03,0.02,18.04,0c1.16,0,2.88,0.37,3.4-0.24c4.31-4.96,5.1,0.13,7.17,2.2
		c-1.15,1.42-2.16,2.67-4.12,5.1c4.33,0,8.4,1.22,10.46-0.29c3.06-2.24,5.33,1.88,7.78-0.46c0.24-0.9,0.65-1.99,0.8-3.11
		c1.03-7.41,0.68-8.03-6.06-11.58c-1.77-0.93-3.5-1.93-5.29-2.81c-1.62-0.79-3.3-1.46-5.08-2.24c0.76-1.19,1.43-2.23,2.16-3.37
		c0.94,0.18,1.9,0.37,2.86,0.54c8.36,1.45,16.11,0.42,22.97-5.15c1.39-1.13,3.56-1.83,5.37-1.85c15.53-0.14,31.07-0.11,46.6-0.03
		c1.56,0.01,3.78,0.21,4.55,1.21c3.81,4.91,9.78,3.67,14.64,5.42c0.66,0.24,2.21-2.02,3.35-3.11c2.16,0.99,12.36-1.08,13.02-3.01
		c0.68-1.99,1.55-4.8-2.05-5.42c-3.4-0.58-6.81-1.03-10.84-1.62c0,3.65,0,6.91,0,10.18c-0.27-2.24-0.42-4.5-0.84-6.71
		c-0.32-1.73-0.97-3.41-1.24-4.32c0.76-4.49,1.43-8.44,2.1-12.4c0.01,3.26,0.01,6.53,0.01,10.2c3.99-0.59,7.41-1.04,10.81-1.63
		c3.58-0.62,2.77-3.41,2.05-5.41c-0.71-1.96-10.86-4.01-13-3c-0.61-3.48-2.07-4.6-5.41-2.4c-0.79,0.52-2.69-0.05-3.69-0.7
		c-0.45-0.29-0.35-2.51,0.22-3c0.76-0.65,2.54-0.99,3.35-0.53c5.46,3.1,5.41,3.18,7.16-2.97c0.08-0.28,0.41-0.49,0.63-0.74
		c0.01,1.89,0.01,3.78,0.01,5.75c4.25,0,8.38,0,12.73,0c0.34-1.71,0.65-3.25,0.98-4.89c-3.86-2.17-7.42-4.19-11-6.2
		c-1.1,2.11-1.98,3.81-2.87,5.51c0.02-2.95,0.04-5.9,0.06-8.86l-0.05,0.01c1.15-0.37,2.31-0.74,3.46-1.11
		c4.23,1.21,8.46,2.42,12.7,3.63c0.41-1.8,1.1-3.6,1.1-5.4c0-0.86-1.33-1.72-2.05-2.59c1.41,0.58,2.83,1.17,4.44,1.84
		c0.51-0.89,1.04-1.81,1.81-3.15c-3.16-1.08-5.87-2.01-9.38-3.21c1.51,2.16,2.39,3.42,3.28,4.69c-2.18-1.42-4.36-2.85-6.64-4.33
		c-0.8,0.69-1.64,1.43-2.49,2.16c1.07-2.22,1.58-4.36-0.89-6.06c0,0-0.15,0.17-0.15,0.17c1.75-0.42,3.5-0.84,5.25-1.26
		c0.74,1.03,1.26,2.46,2.26,3c2,1.08,4.22,1.83,6.43,2.42c1.26,0.33,3.53,0.55,3.86-0.03c0.81-1.43,0.77-3.34,1.06-5.06
		c0.17-0.16,0.34-0.32,0.51-0.48c1.33-0.28,2.66-0.57,3.99-0.85c-1.71-2.2-3.11-3-4.47-3.88c-1.35-0.87-2.65-1.83-3.97-2.74
		c0.13-0.19,0.25-0.38,0.38-0.57c3.09,1.62,6.18,3.24,9.6,5.02c1.1-1.03,2.29-2.15,3.64-3.42c-2.37-4.01-4.54-7.67-6.68-11.3
		c-1.51,0.82-2.66,1.44-3.8,2.07c1.96-1.87,2.33-5.57,6.14-5.3c0.57,1.15,1.14,2.29,1.7,3.44c-0.35,0.65-1.17,1.54-0.98,1.9
		c1.4,2.66,3,5.22,4.54,7.81c0.45-0.05,0.9-0.1,1.34-0.15c0.28-1.35,0.57-2.7,0.85-4.04c2.17-0.49,4.35-0.98,6.8-1.53
		c-1.57-4.18-2.54-7.38-4.02-10.3c-0.45-0.88-2.33-1.03-3.56-1.52c0.82-1.51,1.64-3.02,2.58-4.73c0.42,0.15,1.63,0.57,2.83,0.99
		c2.54,3.8,5.08,7.6,7.69,11.51c2.1-1.04,3.54-1.75,5.17-2.55c-0.85-4.34-1.66-8.48-2.53-12.88c-1.99,0.74-3.37,1.26-4.75,1.77
		c1.76-1.67,3.53-3.34,5.41-5.13c0.51,0.26,1.75,0.9,2.99,1.53c0.22,7.44,5.54,12.83,10.4,10.66c0-4.12,0-8.21,0-12.93
		c-2.94,0.75-5.45,1.39-7.95,2.03c1.86-0.88,3.74-1.7,5.57-2.65c1.27-0.66,2.45-1.47,3.47-2.09c1.32,0.29,2.82,0.9,4.32,0.89
		c1.97,0,3.94-0.56,5.92-0.75c5.08-0.49,5.1-0.67,2.83-5.48c-0.49-1.04-0.07-2.76,0.48-3.92c0.2-0.42,2.72-0.43,2.91-0.02
		c0.54,1.15,0.97,2.86,0.49,3.91c-2.25,4.98-2.32,5.1,3.36,5.5c3.19,0.22,6.65,2.51,9.46-0.38c1.78,1.12,3.7,2.34,5.63,3.55
		c-1.41,0-2.83,0-4.65,0c0,2.82-0.23,5.3,0.07,7.71c0.24,1.87,0.6,4.29,1.86,5.36c2.77,2.34,4.02-1.08,5.82-2.34
		c0.36,1.83-2.27,5.29,2.88,4.62c0.44-2.82,0.89-5.71,1.45-9.35c-1.95,2.12-3.22,3.49-4.48,4.87c0.7-1.6,1.58-3.15,2.05-4.81
		c0.42-1.49,0.39-3.11,0.56-4.67c1.37-0.45,2.75-0.91,3.31-1.09c2.04,1.58,4.04,3.13,6.03,4.67c-1.69-0.36-3.39-0.72-5.32-1.14
		c-0.82,4.35-1.57,8.35-2.38,12.64c1.73,0.78,3.28,1.48,5.17,2.34c2.76-3.93,5.29-7.53,7.82-11.13c1.09-0.56,2.19-1.13,2.64-1.36
		c0.99,1.59,1.9,3.06,2.81,4.54c-1.34,0.64-3.37,0.94-3.9,1.99c-1.48,2.9-2.34,6.11-3.7,9.92c1.84,0.63,4.32,2.21,5.1,1.6
		c3.3-2.54,6.09-5.73,9.07-8.69c1.1-0.21,2.19-0.41,3.25-0.61c0.28,5.28,5.63,6.93,8.28,10.65c0.82,1.15,1.62,2.3,2.43,3.46
		c-1.4,1.02-2.91,1.93-4.18,3.09c-2.03,1.85-3.91,3.87-5.84,5.81c1.82-2.71,3.64-5.41,6.15-9.14c-3.83,2.28-6.59,3.92-10.04,5.97
		c1.79,1.35,2.91,2.19,4.02,3.04c2.12,6.27,1.72,6.69,15.07,0.29c-0.55-0.98-1.1-1.95-1.64-2.91c5.34,3.04,5.8,8.98,8.2,13.76
		c-1.67-2.53-3.33-5.07-5.13-7.8c-2.97,2.44-5.78,4.54-8.29,6.95c-0.7,0.67-0.99,2.4-0.64,3.34c0.36,0.97,1.88,2.35,2.63,2.2
		c4.01-0.78,7.94-1.97,11.9-3.03c1.23,0.28,2.47,0.57,3.7,0.85c0,0-0.13-0.09-0.13-0.09c-0.3,1.89-0.6,3.79-0.9,5.68
		c-1.41-0.5-3.14-1.77-4.16-1.35c-3.28,1.37-6.3,3.38-9.46,5.16c0.55,1.86,0.95,3.24,1.45,4.94c2.21,0,4.38,0.25,6.46-0.07
		c2.36-0.36,4.65-1.21,6.97-1.85c1.78,2.54,3.55,3.05,6.02,0.58c0.81-0.81,2.69-0.54,4.09-0.76c0.11,1.2,0.23,2.4,0.34,3.6
		c-1.41,0.04-2.83,0.1-4.24,0.12c-1.17,0.02-2.66-0.44-3.41,0.11c-0.74,0.55-1.13,2.17-0.97,3.21c0.6,3.72,2.28,7.44,2.07,11.08
		c-0.24,4.34-2,8.6-3.48,14.39c2.85-0.3,4.58-0.63,6.31-0.62c1.28,0.01,2.87,0.1,3.71,0.85c0.48,0.42,0.1,2.68-0.61,3.29
		c-0.64,0.55-2.54,0.43-3.37-0.14c-4.76-3.27-5.13-3.17-6.51,2.35c-0.39,1.56-1.11,3.05-1.69,4.58c0.36-2.83,0.73-5.68,1.11-8.68
		c-4.57,0-8.69,0-13.01,0c-0.37,1.71-0.71,3.25-1.05,4.82c3.06,1.77,5.96,3.11,8.47,4.98C905.85,339.36,906.81,337.7,908.06,336.26z
		 M797.35,337.58c3.95-0.61,4.81-3.08,4.71-6.12c-0.53-0.45-1.07-0.9-1.6-1.35c-1.62,1.89-3.25,3.78-4.87,5.66
		c-3.45,1.93-6.9,3.85-10.36,5.78c0.4,0.73,0.81,1.46,1.21,2.19C790.08,341.7,793.71,339.64,797.35,337.58z M845.51,346.76
		c1.71,4.82,3.42,9.63,5.13,14.45c0.67,0.03,1.33,0.05,2,0.08c0.65-1.36,1.7-2.67,1.87-4.09c0.66-5.31-2.26-8.99-6.12-12.11
		c-2.74-4.5-5.49-9-8.23-13.49c-0.7,0.39-1.4,0.77-2.1,1.16C840.17,337.57,841.17,342.9,845.51,346.76z M831.65,351.05
		c1.42-0.66,2.84-1.32,4.44-2.06c-1.35-4.91-2.63-9.52-3.9-14.14c-0.57,0.09-1.15,0.19-1.72,0.28c-0.58,5.33-0.01,10.64,1.25,15.92
		c0.28,5.17,0.56,10.34,0.85,15.7c6.92-2.17,7.69-6.7,3.32-16.14C834.52,350.75,833.06,350.91,831.65,351.05z M865.69,319.39
		c-0.5-1.22-0.86-3.39-1.53-3.49c-4.45-0.66-8.96-0.88-13.46-1.25c0,1.18-0.1,1.75,0.01,1.79c4.86,1.9,9.53,4.87,15.12,2.78
		c0.33,0.71,0.52,1.91,1.02,2.05c4.5,1.32,9.05,2.46,14.13,3.8c0.34-2.99,0.59-5.18,0.87-7.71c-5.32-0.47-10.06-0.89-14.74-1.31
		C866.57,317.31,866.14,318.34,865.69,319.39z M865.74,303.92c0.96,1.06,1.93,3.03,2.88,3.02c4.28-0.05,8.55-0.67,13.36-1.14
		c-0.43-2.71-0.78-4.89-1.2-7.56c-4.88,1.25-9.21,2.28-13.48,3.55c-0.65,0.19-0.97,1.49-1.45,2.25c-3.82-1.96-13.68,0.73-15.28,4.63
		c4.19-0.37,8.12-0.94,12.06-0.99C865.55,307.66,865.87,306.13,865.74,303.92z M864.49,324.17c-4.75-2.03-9.5-4.06-15.12-6.47
		c1.29,4.74,9.51,8.88,14.4,8.6c4.41,2.74,8.81,5.47,13.81,8.57c1.09-3.49,1.75-5.6,2.74-8.8
		C874.57,325.39,869.53,324.78,864.49,324.17z M813.83,274.33c-0.72,0.8-2.21,1.92-2.03,2.35c1.82,4.39,3.92,8.67,5.94,12.99
		c0.74-0.28,1.47-0.55,2.21-0.83c-1.43-4.73-2.83-9.47-4.36-14.16c-0.08-0.25-1.24-0.15-1.9-0.22c0.53-1.05,1.67-2.24,1.47-3.12
		c-0.97-4.28-2.3-8.49-3.62-13.14c-2.65,1.06-4.81,1.93-7.15,2.87c1.91,4.17,3.34,7.88,5.32,11.27
		C810.34,273.42,812.43,273.68,813.83,274.33z M860.63,290.67c-4.6,0.61-12.05,6.1-12.86,10.21c4.39-2.01,8.38-3.73,12.24-5.69
		c0.77-0.39,1.06-1.73,1.57-2.63c3.25,0.89,13.07-3.25,14.75-6.25c0.14-0.25,0.03-0.65,0.05-0.98c2.73,1,11.58-4.14,11.16-6.76
		c-0.19-1.16-2.47-3.05-3.39-2.84c-3.42,0.79-6.68,2.32-9.9,3.53c0.96,2.61,1.63,4.42,2.29,6.23c-1.21-1.45-2.42-2.91-4.28-5.15
		C868.38,283.8,864.5,287.24,860.63,290.67z M863.73,296.89c-4.98-0.21-13.17,3.99-14.02,7.69c2.9-0.73,5.65-1.18,8.2-2.14
		c2.3-0.87,4.39-2.31,6.57-3.5c5.15-0.59,10.3-1.17,15.91-1.81c-0.8-2.53-1.14-3.81-1.61-5.03c-0.34-0.89-0.86-1.71-1.77-3.46
		C872.39,291.51,868.06,294.2,863.73,296.89z M822.52,272.2c-1.51,0.59-3.02,1.18-4.84,1.89c1.4,4.9,2.74,9.6,4.08,14.3
		c0.7-0.13,1.4-0.26,2.1-0.39c-0.46-5.28-0.92-10.55-1.39-15.83c-0.43-5.12-0.86-10.23-1.33-15.82c-2.76,0.53-5.1,0.98-7.66,1.47
		c1.01,3.79,2.19,6.96,2.62,10.22C816.68,272.29,818.78,273.37,822.52,272.2z M861.45,330.97c-0.96-3.24-9-7.62-13.75-7.49
		c1.4,3.28,8.53,8.38,12.87,9.21c3.88,3.36,7.77,6.73,11.72,10.15c1.8-2.16,3.03-3.63,4.26-5.11c-0.7,1.92-1.4,3.83-2.28,6.24
		c3.42,1.29,6.58,2.67,9.87,3.6c0.81,0.23,2.37-0.72,2.96-1.57c0.42-0.61,0.18-2.31-0.4-2.88c-1.99-1.97-4.14-3.85-6.5-5.34
		c-0.89-0.56-2.53,0.05-3.82,0.12c-0.29-0.85-0.33-2.18-0.91-2.48c-3.77-1.97-7.61-3.81-11.53-5.47
		C863.36,329.71,862.29,330.6,861.45,330.97z M831.7,272.21c1.45,0.15,2.91,0.3,4.72,0.48c1.31-4.98,2.56-9.71,3.92-14.89
		c-2.68-0.47-4.99-0.88-8.5-1.49c0,5.8,0,10.87,0.05,15.95c-1.73,5.27-1.78,10.54-1.54,15.82c0.65,0.04,1.3,0.09,1.95,0.13
		c1.25-4.69,2.5-9.37,3.76-14.09C834.35,273.38,833.03,272.79,831.7,272.21z M840.15,274.33c1.33-0.55,3.33-0.74,3.89-1.73
		c2.02-3.61,3.55-7.48,5.43-11.61c-2.53-0.98-4.74-1.84-7.19-2.79c-1.27,4.51-2.54,8.31-3.31,12.21c-0.24,1.22,0.86,2.7,1.36,4.07
		c-3.45,1.01-6.56,10.44-4.4,15.96c2.32-5.04,4.37-9.27,6.13-13.62C842.25,276.32,840.82,275.17,840.15,274.33z M778.4,283.52
		c0.3-1.34,0.6-2.68,0.96-4.26c-3.15-1.24-5.99-2.59-8.97-3.42c-1.02-0.28-2.98,0.4-3.45,1.24c-0.46,0.81,0.04,2.81,0.82,3.55
		c2.33,2.25,5.01,4.15,7.28,5.96c1.47-1.34,2.51-2.3,3.56-3.26c-0.36,1.37-0.71,2.73-1.1,4.21c3.85,1.81,7.39,3.63,11.08,5.1
		c1.09,0.43,2.59-0.16,3.91-0.29c1.02,3.23,9.1,7.59,13.71,7.4c-1.39-3.2-8.5-8.32-12.79-9.21c-3.88-3.33-7.76-6.66-11.6-9.96
		C780.27,281.9,779.34,282.7,778.4,283.52z M855.74,263.8c-1.49-0.51-2.98-1.03-4.67-1.61c-1.84,3.84-3.76,7.31-5.12,10.99
		c-0.46,1.24,0.48,3,0.79,4.52c-3.44-0.33-9.01,9.4-7.58,13.29c0.06,0.16,0.6,0.14,1.06,0.23c2.23-3.2,4.6-6.37,6.66-9.74
		c0.53-0.87,0.06-2.35,0.04-3.55c2.89-0.46,10.86-10.12,10.21-12.53c-0.18-0.68-1.01-1.19-1.55-1.78c2.81,0.95,4.44,0.14,5.19-2.92
		c0.65-2.66,1.83-5.2,2.84-7.98c-1.52-0.84-2.75-1.52-4.17-2.32c-2.7,3.36-5.21,6.49-7.49,9.32
		C853.63,261.55,854.69,262.67,855.74,263.8z M775.97,288.95c-4.38-1.16-8.76-2.32-13-3.44c-2.3,4.95,0.82,8.06,8.95,9.95
		c1.36-2.18,2.71-4.35,4.06-6.51c-0.7,2.33-1.4,4.66-2.44,8.11c5.67,0.75,10.84,1.43,16.01,2.11c4.7,2,9.39,4,14.94,6.36
		c-1.24-4.71-9.35-8.81-14.22-8.54c-1.15-1.04-2.15-2.37-3.48-3.06C783.25,292.11,779.58,290.58,775.97,288.95z M790.01,326.47
		c5.03,0.03,13.1-4.04,14.43-8.01c-4.98,1.45-9.49,2.73-13.96,4.12c-0.26,0.08-0.25,1.05-0.36,1.61c-5.37,0.6-10.75,1.2-16.63,1.86
		c1.08,3.61,1.77,5.95,2.47,8.29c-1.43-2.27-2.86-4.55-4.27-6.78c-10.23,3.77-11.45,5.17-8.4,10.16c4.14-1.11,8.4-2.25,12.67-3.39
		c1.62-0.75,3.31-1.38,4.85-2.26C783.92,330.27,786.95,328.34,790.01,326.47z M853.45,340.74c-2.37-5.05-6.45-8.24-10.74-11.23
		c-0.6,0.54-1.2,1.09-1.8,1.63c3.57,3.84,7.14,7.68,10.71,11.51c1.45,2.95,2.59,6.09,4.4,8.8c3.59,5.39,4.58,5.28,9.37-0.69
		C861.43,347.44,857.44,344.09,853.45,340.74z M857.27,336.84c-0.1-1.04,0.19-2.59-0.38-3.03c-3.25-2.55-6.68-4.88-10.14-7.14
		c-0.37-0.24-1.32,0.4-3.02,0.98c4.46,3.99,8.33,7.44,12.2,10.89c3.48,3.84,6.97,7.67,10.47,11.53c1.73-1.43,2.96-2.45,4.19-3.46
		c-0.8,1.54-1.6,3.09-2.58,5c1.92,1.14,3.85,2.29,5.06,3.01c1.8-1.79,3.15-3.13,4.64-4.62c-1.81-1.65-2.61-6.32-7.29-3.23
		c-0.21-1.35,0.06-3.26-0.73-3.94c-2.62-2.28-5.53-4.29-8.54-6.05C860.18,336.22,858.58,336.79,857.27,336.84z M796.03,264.87
		c1.85-1.52,3.69-3.04,6.07-5c-2.6-3.16-5.16-6.27-7.86-9.56c-1.52,1-2.7,1.78-4.59,3.01c2.23,3.93,4.36,7.69,6.48,11.44
		c3.13,4.58,6.26,9.16,9.4,13.74c2.7,4.38,5.4,8.77,8.1,13.15c0.68-0.34,1.37-0.68,2.05-1.02c-1.63-5.01-3.27-10.03-7.22-14.11
		c-1.75-4.81-3.51-9.62-5.33-14.62C800.17,263.14,798.09,264.01,796.03,264.87z M856.27,285.54c-4.04,3.08-8.09,6.15-12.13,9.23
		c0.45,0.6,0.9,1.21,1.35,1.81c5.13-1.8,9.45-4.92,13.02-9.22c4.02-2.47,8.11-4.85,12-7.53c0.51-0.35-0.02-2.2-0.06-3.35
		c2.12,1.39,3.87,1.63,5.55-0.89c1.55-2.32,3.57-4.33,5.6-6.73c-1.1-1.24-2.14-2.41-3.21-3.62c-3.74,2.27-7.1,4.31-10.41,6.32
		c1.04,2,1.84,3.55,2.64,5.09c-1.24-1.02-2.48-2.04-4.54-3.73C862.75,277.19,859.51,281.37,856.27,285.54z M778.44,339.76
		c0.94,0.8,1.87,1.59,3.39,2.88c3.84-3.31,7.7-6.65,11.56-9.98c5.56-1.23,9.28-5.05,12.78-9.42c-4.89,1.41-9.29,3.74-13.64,6.17
		c-0.11,0.06,0.34,1.13,0.53,1.72c-1.45-0.24-3.13-1.07-4.31-0.62c-3.91,1.51-7.64,3.48-11.37,5.24c0.5,1.7,0.86,2.93,1.22,4.15
		c-0.91-1.25-1.82-2.49-2.89-3.95c-2.93,2.42-5.07,4.19-7.83,6.47c4.38,0,7.57,0,10.76,0C778.56,341.33,778.5,340.55,778.44,339.76z
		 M792.27,267.73c1.91-6.18-4.67-6.37-7.01-9.53c-0.38-0.51-3.03,0.66-5.22,1.2c2.71,4.43,4.82,7.87,6.85,11.19
		c2.25-1.23,3.9-2.12,5.55-3.02c-1.24,1.46-2.48,2.92-4.17,4.92c4.24,3.43,8.3,6.7,12.35,9.98c2.01,5.32,6.4,8.16,11.17,10.73
		c-2.78-4.53-3.92-10.19-9.42-12.62c-2.73-4.38-5.44-8.76-8.25-13.08C793.97,267.26,792.91,267.64,792.27,267.73z M853.5,282.43
		c4-3.38,8-6.75,11.96-10.1c-1.72-2.11-2.82-3.46-3.92-4.82c1.65,0.95,3.31,1.89,4.95,2.83c6.88-7.37,7.55-10.4,2.69-12.94
		c-2.22,1.88-4.73,3.6-6.67,5.82c-0.85,0.97-0.56,2.95-0.79,4.47c-3.71,0.15-10.06,8.2-10.15,12.87c-5.63,2.3-6.6,8.11-9.54,12.54
		C847,290.69,851.15,287.52,853.5,282.43z M795.61,287.44c3.31,4.8,10.57,9.19,14.05,7.78c-3.16-3.04-6.04-5.98-9.13-8.67
		c-0.78-0.68-2.23-0.6-3.37-0.86c-3.12-4.29-6.23-8.58-9.38-12.91c-2.57,2.29-4.02,3.59-5.48,4.89c1.12-1.9,2.24-3.81,3.62-6.15
		c-3.57-2.12-7.04-4.18-10.69-6.35c-1.13,1.49-1.98,2.62-2.9,3.84c1.57,1.85,2.77,3.71,4.4,5.05c1.7,1.4,3.81,2.31,5.74,3.44
		C786.87,280.82,791.24,284.13,795.61,287.44z M655.79,406.51c0-7.43-0.09-14.62,0.08-21.8c0.03-1.46,0.71-3.89,1.64-4.19
		c3.85-1.25,7.95-2.73,11.87-2.5c6.02,0.35,7.73,2.92,7.57,9.16c-0.17,6.45-0.62,12.89-0.96,19.37c2.69,0,5.66,0,8.2,0
		c-0.32-8.09-0.54-16.03-0.99-23.95c-0.19-3.37,0.85-5.59,4.31-6.1c4.85-0.72,9.77-2.01,14.58-1.71c6.93,0.42,8.95,3.24,8.78,10.37
		c-0.18,7.1-0.68,14.2-1.04,21.4c2.71,0,5.68,0,8.07,0c-0.26-7.46-0.72-14.77-0.63-22.07c0.02-1.61,1.65-3.91,3.14-4.62
		c2.58-1.23,5.63-1.97,8.49-2c6.83-0.05,9.58,2.82,9.43,9.5c-0.15,6.33-0.61,12.64-0.94,19.14c2.76,0,5.69,0,8.39,0
		c-0.35-6.54-0.43-12.9-1.1-19.19c-0.52-4.88,3.19-6.14,6.05-6.17c2.59-0.03,6.13,1.35,5.65,5.94c-0.67,6.41-0.75,12.89-1.08,19.49
		c2.63,0,5.6,0,8.83,0c-0.37-7.98-4.75-16.22,0.53-22.87c-0.8-2.27-1.89-4.09-2.01-5.97c-0.35-5.42-0.22-10.88-0.53-16.3
		c-0.05-0.94-1.35-1.81-2.07-2.71c-0.87,0.92-2.2,1.71-2.5,2.78c-0.56,1.99-0.52,4.14-0.75,6.49c-4.46-0.56-8.56-1.08-12.75-1.6
		c-0.26-3.67-0.32-7.09-0.86-10.43c-0.17-1.07-1.6-1.93-2.46-2.89c-0.75,0.91-1.96,1.73-2.16,2.75c-0.44,2.21-0.38,4.52-0.55,7.31
		c-7.24-0.88-14.15-1.73-21.36-2.61c-0.22-3.55-0.28-6.99-0.76-10.36c-0.13-0.92-1.51-1.66-2.31-2.48c-0.79,0.82-2.02,1.53-2.27,2.5
		c-0.45,1.72-0.48,3.6-0.38,5.4c0.17,3.09-1.25,4.06-4.18,3.95c-4.34-0.16-8.69-0.04-13.03-0.04c-9.4,0-9.35-0.01-10.88-9.1
		c-0.17-0.99-1.37-1.8-2.1-2.7c-0.87,0.91-2.33,1.73-2.5,2.76c-0.55,3.3-0.62,6.69-0.88,10.13c-7.29,0.86-14.17,1.67-21.24,2.5
		c-0.23-2.95-0.19-5.29-0.69-7.5c-0.22-0.96-1.57-1.67-2.41-2.49c-0.72,0.91-1.91,1.75-2.07,2.75c-0.53,3.49-0.71,7.03-1.03,10.65
		c-4.49,0.5-8.54,0.96-12.68,1.42c-0.22-2.59-0.1-4.64-0.66-6.49c-0.32-1.07-1.73-1.81-2.64-2.7c-0.67,0.93-1.87,1.84-1.93,2.81
		c-0.31,5.24-0.14,10.52-0.56,15.74c-0.18,2.17-1.43,4.26-2.13,6.21c5.43,7.13,0.68,15.34,0.82,23.02c3.28,0,6.26,0,8.71,0
		c-0.34-6.57-0.38-12.97-1.09-19.29c-0.51-4.6,2.87-6,5.56-6.02c2.95-0.02,6.51,1.3,6.06,6.09c-0.6,6.32-0.7,12.69-1.03,19.24
		C651.11,406.51,654.04,406.51,655.79,406.51z M311.88,406.46c0.7-6.68,1.37-13.03,1.91-18.09c-6.32,0-11.59,0.06-16.85-0.08
		c-0.59-0.01-1.51-1.03-1.66-1.72c-0.91-4.11-2.07-8.23-2.3-12.39c-0.2-3.59,0.64-7.16-2.29-10.14c-0.62-0.63-0.83-2.09-0.6-3.02
		c0.83-3.39,2.05-6.69,2.83-10.09c0.22-0.95-0.36-2.27-0.94-3.18c-1.22-1.9-2.68-3.64-4.22-5.68c-2.2,3.75-4.33,7.38-7.13,12.15
		c2.27-0.65,3.05-0.87,4.01-1.15c0.01,5.11,0.77,10.14-3.31,14.13c-0.47,0.46-0.37,1.54-0.46,2.34c-0.59,5.1-0.84,10.28-1.93,15.27
		c-0.34,1.56-2.81,3.52-4.5,3.72c-2.28,0.27-4.73-1.34-7.14-1.47c-1.99-0.11-4.03,0.76-6.93,1.39c0.49,5.18,1.09,11.47,1.71,18.01
		C278.71,406.46,295,406.46,311.88,406.46z M443.54,388.24c-18.76,0-36.98,0-56.42,0c1.33,4.15,2.28,6.84,3.06,9.57
		c0.82,2.89,1.49,5.83,2.2,8.66c5.53,0.26,5.53,0.26,7.18-6.44c4.31-0.21,8.49-0.68,12.64-0.54c8.23,0.27,8.22,0.41,10.76-6.71
		c6.61,0,13.27,0,20.06,0C443.23,390.92,443.4,389.45,443.54,388.24z M506.96,385.44c0.64-7.02,1.04-13.44-5.53-17.38
		c-4.21-2.53-8.67-2.29-12.66,0.74c-5.12,3.89-5,9.22-4.06,14.91C492.14,384.29,499.25,384.84,506.96,385.44z M366.82,391.79
		c-0.37-0.36-0.75-0.72-1.12-1.09c-8.15,1.41-16.31,2.74-24.43,4.31c-0.91,0.18-2.14,1.61-2.23,2.56c-0.29,2.9-0.11,5.84-0.11,9.15
		c6.01,0,11.32-0.27,16.6,0.08c4.38,0.29,7.12-0.51,6.79-5.66c-0.07-1.03,0.64-2.15,1.15-3.16
		C364.52,395.89,365.69,393.85,366.82,391.79z M828.32,397.17c0.6,3.26,1.14,6.25,1.68,9.17c7.43,0,14.84,0,22.2,0
		c0-4.51,0-8.59,0-13c-2.29,0.53-4.21,1.05-6.16,1.42c-3.92,0.73-4.5,2.18-1.66,5.26c0.88,0.95,0.49,3.07,0.68,4.65
		c-1.21,0.13-3.36,0.63-3.48,0.32c-0.57-1.44-1.15-3.29-0.7-4.64c1.15-3.44,0.35-4.69-3.29-4.15
		C834.8,396.61,831.98,396.8,828.32,397.17z M840.14,394.64c-1.33-3.81-2.31-7.14-3.71-10.29c-0.45-1.01-2.07-2.13-3.1-2.07
		c-1.08,0.06-2.75,1.28-3.02,2.3c-0.93,3.42-1.36,6.99-2.09,11.14C832.5,395.34,835.9,395.03,840.14,394.64z M911.01,313.1
		c-4.09,0.62-7.39,0.93-10.58,1.71c-1.07,0.26-2.58,1.68-2.6,2.61c-0.04,1.26,0.85,3.21,1.89,3.71c3.06,1.46,6.4,2.36,10.38,3.73
		C910.4,320.87,910.68,317.34,911.01,313.1z M813.78,228.61c1.32,3.87,2.38,7.46,3.83,10.89c0.35,0.82,2.01,1.57,3,1.49
		c1.02-0.08,2.61-1.04,2.82-1.89c0.9-3.61,1.38-7.32,2.13-11.68C821.39,227.84,817.86,228.19,813.78,228.61z M842.91,394.46
		c3.52-1.3,6.5-2.4,9.48-3.5c-1.33-3.49-2.38-7.13-4.19-10.34c-0.44-0.78-3.42-0.12-5.29-0.12
		C842.91,385.22,842.91,389.32,842.91,394.46z M910.01,298.38c-4,1.4-7.34,2.36-10.46,3.79c-0.95,0.44-1.74,2.16-1.78,3.33
		c-0.03,0.95,1.01,2.62,1.84,2.8c3.59,0.79,7.27,1.15,11.46,1.74C910.68,305.78,910.36,302.25,910.01,298.38z M840.1,228.77
		c-3.33-0.45-6.08-0.86-8.85-1.18c-0.78-0.09-1.58,0.09-2.35,0.14c-0.3,10.29,1.11,13.12,6.87,13.26
		C837.14,237.13,838.55,233.13,840.1,228.77z M879.2,263.29c3.72-2.27,7.29-4.46,10.74-6.56c-2.89-3.05-5.33-5.62-7.8-8.23
		C874.5,259.17,874.5,259.17,879.2,263.29z M882.2,307.77c-4.72,0.36-8.85,0.5-12.93,1.1c-0.99,0.14-2.45,1.73-2.47,2.68
		c-0.02,0.97,1.36,2.7,2.31,2.83c4.2,0.59,8.47,0.74,13.08,1.07C882.2,312.79,882.2,310.57,882.2,307.77z M771.67,315.43
		c4.75-0.34,9.18-0.52,13.57-1.1c0.82-0.11,1.97-1.83,1.96-2.79c-0.01-0.93-1.24-2.53-2.1-2.64c-4.37-0.56-8.78-0.74-13.43-1.07
		C771.67,310.56,771.67,312.79,771.67,315.43z M787.25,315.94c-5.46,0.56-10.3,1.06-15.58,1.6c0.67,2.96,1.15,5.1,1.68,7.46
		c5.14-1.37,9.61-2.56,14.33-3.81C787.54,319.53,787.42,318.09,787.25,315.94z M787.72,302.04c-4.93-1.29-9.64-2.52-14.8-3.87
		c-0.37,2.91-0.63,4.98-0.97,7.69c5.25,0.46,10.1,0.88,15.21,1.33C787.38,305.21,787.53,303.79,787.72,302.04z M823.09,256.47
		c0.46,5.37,0.87,10.19,1.3,15.26c2.06-0.13,3.47-0.23,5.21-0.34c0.36-5.11,0.7-9.93,1.04-14.92
		C827.9,256.47,825.95,256.47,823.09,256.47z M841.37,256.64c0-4.13,0.13-7.59-0.1-11.02c-0.05-0.78-1.21-1.9-2.04-2.1
		c-0.89-0.21-2.63,0.23-2.9,0.85c-1.44,3.4-2.53,6.94-3.82,10.66C835.66,255.61,837.9,256.01,841.37,256.64z M770.03,307.36
		c-3.76,0.53-7.19,0.85-10.53,1.61c-0.86,0.2-1.82,1.74-1.94,2.76c-0.1,0.79,0.92,2.33,1.66,2.49c3.48,0.73,7.05,1.1,10.81,1.64
		C770.03,312.74,770.03,310.33,770.03,307.36z M883.76,315.92c3.89-0.56,7.33-0.89,10.66-1.67c0.83-0.19,1.72-1.82,1.82-2.86
		c0.07-0.79-0.97-2.27-1.72-2.43c-3.46-0.7-7-1.04-10.76-1.55C883.76,310.45,883.76,312.72,883.76,315.92z M878.75,288.15
		c1.13,2.97,2.02,5.33,3.13,8.26c4.01-2.29,7.44-4.24,11.11-6.32c-0.71-1.63-1.29-2.94-1.94-4.43
		C886.96,286.49,883.12,287.27,878.75,288.15z M813.03,256.64c3.04-0.69,5.45-1.23,7.82-1.77c-1.93-10.58-3.08-12.07-7.82-10.75
		C813.03,248.19,813.03,252.19,813.03,256.64z M878.76,335.15c4.53,0.87,8.39,1.61,12.48,2.39c0.58-1.61,1.07-2.94,1.65-4.55
		c-3.82-2.08-7.33-4-11.16-6.08C880.59,330.06,879.82,332.21,878.76,335.15z M811.65,256.78c-1.89-3.39-3.47-6.49-5.33-9.4
		c-0.43-0.67-2.06-1.24-2.72-0.94c-0.95,0.42-2.23,1.77-2.14,2.59c0.41,3.53,1.27,7.01,2.03,10.83
		C806.53,258.71,808.81,257.85,811.65,256.78z M849.68,259.55c4.13-7.89,3.7-12.32-1.5-13.5c-1.93,3.44-3.9,6.96-6.04,10.77
		C845.13,257.91,847.42,258.74,849.68,259.55z M831.28,254.68c-0.69-4.26-1.32-8.09-1.97-12.06c-1.73,0-3.14,0-4.74,0
		c-0.63,3.61-1.25,7-1.8,10.4c-0.07,0.44,0.17,0.93,0.33,1.66C825.54,254.68,827.94,254.68,831.28,254.68z M883.52,306.13
		c3.87-1.34,7.02-2.27,10.01-3.57c0.86-0.38,1.85-1.94,1.7-2.77c-0.17-0.93-1.51-2.25-2.43-2.33c-3.4-0.28-6.85-0.11-10.69-0.11
		C882.62,300.5,883.01,302.89,883.52,306.13z M770.23,317.12c-3.9,1.36-7.05,2.29-10.04,3.62c-0.83,0.37-1.58,1.91-1.55,2.89
		c0.02,0.76,1.27,2.08,2.04,2.13c3.54,0.23,7.1,0.1,11.13,0.1C771.22,322.61,770.79,320.23,770.23,317.12z M771.75,297.37
		c-4.04,0-7.48-0.17-10.89,0.12c-0.87,0.07-2.02,1.48-2.3,2.48c-0.19,0.68,0.71,2.19,1.47,2.51c3.14,1.32,6.41,2.33,10.18,3.64
		C770.76,303.02,771.2,300.53,771.75,297.37z M882.13,325.86c3.94,0,7.4,0.13,10.83-0.09c0.83-0.05,2.01-1.14,2.24-1.98
		c0.24-0.83-0.25-2.57-0.87-2.82c-3.42-1.39-6.98-2.45-10.93-3.78C882.92,320.44,882.57,322.83,882.13,325.86z M375.92,383.11
		c0.47,0.44,0.93,0.88,1.4,1.32c1.22-0.9,3.35-1.65,3.52-2.71c1.28-8.21,2.17-16.48,3.19-24.73c-0.27-0.06-0.55-0.13-0.82-0.19
		C380.78,365.57,378.35,374.34,375.92,383.11z M747.93,338.82c3.82-2.16,7.51-4.25,11.02-6.24c-0.65-3.14-0.74-6.43-4.8-4.56
		c-1.54,0.71-2.55,2.63-4.1,3.28C746.41,332.82,745.02,334.8,747.93,338.82z M834.07,367.26c-0.46,0.56-0.92,1.12-1.38,1.68
		c1.06,3.11,1.96,6.28,3.23,9.3c1.23,2.91,3.96,2.3,5.02,0.53c0.9-1.51,0.79-4.63-0.24-6.06
		C839.09,370.45,836.34,369.03,834.07,367.26z M506.7,393.25c0.04-0.74,0.08-1.48,0.13-2.23c-6.98-0.44-13.96-0.95-20.95-1.21
		c-0.53-0.02-1.12,1.72-2.17,3.43C491.92,393.25,499.31,393.25,506.7,393.25z M743.79,348.27c1.71,0.54,3.78,1.18,6.95,2.17
		c-1.68-3.74-2.74-6.11-3.96-8.84c-3.02,1.89-5.73,3.58-8.71,5.45c0.03,0.46,0.09,1.52,0.2,3.42
		C740.43,349.61,742.12,348.93,743.79,348.27z M788.44,307.4c4.99,0.39,9.9,0.78,14.8,1.17c0.14-0.71,0.28-1.41,0.42-2.12
		c-3.81-1.08-7.67-1.99-11.41-3.27C788.74,301.98,788.08,303.56,788.44,307.4z M829.67,272.51c-2.16,0.1-3.51,0.16-5.36,0.25
		c0.53,5.26,1.01,10.05,1.5,14.83c0.7,0.05,1.41,0.09,2.11,0.14C828.47,282.94,829.02,278.16,829.67,272.51z M789.02,321.02
		c5.23-1.56,9.92-2.96,14.61-4.37c-0.16-0.68-0.32-1.36-0.47-2.04c-4.9,0.42-9.79,0.84-15.13,1.29
		C788.39,317.75,788.65,319.1,789.02,321.02z M865.82,314.08c-0.1-1.88-0.18-3.24-0.27-5.01c-5.3,0.54-10.1,1.03-14.91,1.53
		c0.05,0.75,0.09,1.49,0.14,2.24C855.62,313.23,860.47,313.64,865.82,314.08z M803.04,312.83c0-0.77,0.01-1.54,0.01-2.32
		c-3.82-0.35-7.66-0.56-11.46-1.09c-3.94-0.56-4.19,1.22-3.03,4.62C793.43,313.64,798.24,313.24,803.04,312.83z M744.35,333.77
		c-2.88,2.18-5.03,3.81-7.18,5.44c0.28,0.41,0.56,0.81,0.85,1.22c2.63,0,5.26,0,8.39,0C745.65,338,745.18,336.47,744.35,333.77z
		 M866.85,352.6c-0.54,0.05-1.08,0.1-1.62,0.15c-0.36,1.83-1.6,4.67-0.9,5.29c1.72,1.51,4.34,1.98,6.61,2.87
		c0.18-0.32,0.37-0.64,0.55-0.97C869.94,357.49,868.4,355.05,866.85,352.6z M374.28,395.01c0.8,3.82,1.54,7.31,2.42,11.51
		c1.26-4.31,2.24-7.7,3.35-11.51C378.14,395.01,376.32,395.01,374.28,395.01z M25.64,390.62c0.28,0.01,0.57,0.03,0.85,0.04
		c0-5.56,0-11.11,0-16.67c-0.28,0.02-0.57,0.03-0.85,0.05C25.64,379.57,25.64,385.1,25.64,390.62z M754.1,349.74
		c-0.46-3-0.87-5.72-1.35-8.88c-0.69,0.17-2.31,0.57-4.42,1.09C750.73,344.79,749.64,349.74,754.1,349.74z M816.67,241.31
		c-1.28-3.52-2.35-6.44-3.41-9.36c-0.21,0.09-0.42,0.17-0.63,0.26c0,3.13,0,6.27,0,9.71C813.91,241.72,814.98,241.56,816.67,241.31z
		 M840.52,232.03c-1.05,3-2.11,6-3.19,9.1C841.79,241.81,841.79,241.81,840.52,232.03z M812.54,330.71
		c-0.61-0.56-1.23-1.11-1.84-1.67c-1.77,1.93-3.61,3.8-5.2,5.87c-0.17,0.22,1.14,1.58,2.08,2.82
		C809.47,335.05,811,332.88,812.54,330.71z M837.11,381.94c1.36,3.53,2.47,6.41,3.58,9.29c0.19-0.09,0.37-0.17,0.56-0.26
		c0-3.1,0-6.2,0-9.61C839.92,381.55,838.86,381.7,837.11,381.94z M898.15,309.56c0,4.61,2.19,4.94,9.43,1.63
		C904.22,310.61,901.38,310.12,898.15,309.56z M22.17,390.6c0.31,0.02,0.62,0.04,0.93,0.05c0-5.82,0-11.64,0-17.46
		c-0.31,0.01-0.62,0.01-0.93,0.02C22.17,379.01,22.17,384.8,22.17,390.6z M755.8,309.48c-3.31,0.64-6.19,1.19-10.44,2.01
		C755.68,314.21,755.68,314.21,755.8,309.48z M874.16,258.72c1.92-3.33,3.48-6.03,5.05-8.74c-0.28-0.16-0.56-0.32-0.84-0.47
		c-2.34,2.06-4.68,4.12-7.22,6.35C872.16,256.81,872.95,257.57,874.16,258.72z M804.57,244.06c-1.85-3.22-3.39-5.89-4.92-8.56
		c-0.25,0.13-0.51,0.27-0.76,0.4c0.6,3.14,1.21,6.27,1.88,9.77C802.19,245.07,803.2,244.64,804.57,244.06z M897.3,271.54
		c-0.12-0.26-0.24-0.52-0.36-0.79c-3.03,1.15-6.06,2.31-9.54,3.63c0.88,1.32,1.52,2.28,2.28,3.41
		C892.45,275.52,894.88,273.53,897.3,271.54z M860.63,249.06c1.4,0.78,2.37,1.33,3.62,2.03c1.2-3.19,2.3-6.1,3.4-9.02
		c-0.3-0.14-0.59-0.28-0.89-0.42C864.86,243.95,862.96,246.25,860.63,249.06z M786.99,241.56c-0.27,0.14-0.54,0.28-0.81,0.41
		c1.12,2.97,2.24,5.94,3.48,9.24c1.36-0.88,2.29-1.48,3.47-2.24C790.95,246.35,788.97,243.96,786.99,241.56z M894.72,334.09
		c-1.74,4.25-0.71,4.83,9.03,5.2C900.42,337.37,897.77,335.85,894.72,334.09z M749.64,283.76c3.88,2.15,6.75,3.73,9.77,5.4
		C760.48,284.82,760,284.56,749.64,283.76z M815.66,332.54c-0.59-0.26-1.18-0.52-1.77-0.79c-1.51,2.14-3.03,4.28-5.33,7.53
		c2.35-0.13,4.15,0.2,4.46-0.33C814.16,336.97,814.81,334.7,815.66,332.54z M750.9,338.76c9.76-0.24,10.2-0.51,7.99-4.5
		C756.23,335.76,753.57,337.26,750.9,338.76z M828.85,366.58c0.61-0.02,1.21-0.04,1.82-0.06c-0.36-4.67-0.72-9.33-1.08-14
		c-0.24,0.02-0.49,0.04-0.73,0.06C828.85,357.25,828.85,361.91,828.85,366.58z M825.02,240.01c4.39,0.31,4.58-0.91,1.59-9.73
		C826.03,233.86,825.53,236.92,825.02,240.01z M893.11,285.39c1.75,4.09,4.26,3.51,9.96-1.88
		C899.67,284.15,896.65,284.72,893.11,285.39z"/>
	<path class="st0" d="M394.39,336.91c-0.07-1.26-0.15-2.52-0.25-4.2c1.29,0.25,2.34,0.46,3.4,0.67
		c15.97,12.81,31.94,25.62,47.92,38.43c-0.34,2-0.69,4-1.03,6c-9.14-7.95-18.21-15.97-27.44-23.81
		c-6.17-5.24-12.55-10.21-18.84-15.31c-1.01-0.36-2.02-0.71-3.03-1.07l0.14,0.12C394.96,337.47,394.68,337.19,394.39,336.91z"/>
	<path class="st0" d="M381.33,341.06c0.21,0.73,0.8,1.6,0.58,2.16c-1.94,4.87-4.02,9.69-6.06,14.52c-1.48,1.31-3.14,2.47-4.42,3.96
		c-7.11,8.29-14.12,16.66-21.17,25c-1.1,0.08-2.19,0.16-3.29,0.24c5.61-7.68,11.3-15.3,16.79-23.07c1.46-2.08,2.28-4.61,3.4-6.93
		C371.89,351.64,376.61,346.35,381.33,341.06z"/>
	<path class="st0" d="M367.16,356.93c-1.12,2.32-1.93,4.85-3.4,6.93c-5.48,7.77-11.17,15.39-16.79,23.07
		c-2.42,1.03-4.84,2.07-8.71,3.72c1.08-3.01,1.63-4.54,2.18-6.07C349.35,375.36,358.26,366.15,367.16,356.93z"/>
	<path class="st0" d="M850.44,240.47c-1.79,1.26-3.05,4.68-5.82,2.34c-1.26-1.06-1.62-3.48-1.86-5.36c-0.3-2.41-0.07-4.89-0.07-7.71
		c1.82,0,3.23,0,4.65,0c1.85,0.46,3.71,0.92,5.56,1.39c-0.17,1.56-0.14,3.18-0.56,4.67c-0.47,1.66-1.35,3.21-2.05,4.81
		L850.44,240.47z"/>
	<path class="st0" d="M776.09,248.75c-0.57-1.15-1.14-2.29-1.7-3.44c2.23-1.46,4.45-2.93,6.68-4.39c1.23,0.49,3.11,0.64,3.56,1.52
		c1.48,2.93,2.45,6.12,4.02,10.3c-2.45,0.55-4.63,1.04-6.8,1.53C779.93,252.43,778.01,250.59,776.09,248.75z"/>
	<path class="st0" d="M769.06,266.76c-0.3,1.72-0.25,3.63-1.06,5.06c-0.33,0.58-2.6,0.36-3.86,0.03c-2.21-0.58-4.43-1.33-6.43-2.42
		c-1-0.54-1.52-1.97-2.26-3c1.76-2.64,3.53-5.27,5.29-7.91C763.51,261.27,766.28,264.01,769.06,266.76z"/>
	<path class="st0" d="M802.9,231.18c2.51-0.64,5.01-1.28,7.95-2.03c0,4.71,0,8.8,0,12.93c-4.86,2.18-10.18-3.22-10.4-10.66
		C801.26,231.34,802.08,231.26,802.9,231.18z"/>
	<path class="st0" d="M909.63,293.79c-2.32,0.64-4.61,1.49-6.97,1.85c-2.08,0.31-4.24,0.07-6.46,0.07c-0.5-1.7-0.9-3.08-1.45-4.94
		c3.16-1.78,6.18-3.78,9.46-5.16c1.02-0.43,2.75,0.85,4.16,1.35C908.79,289.23,909.21,291.51,909.63,293.79z"/>
	<path class="st0" d="M867.53,237.42c-2.53,3.6-5.06,7.21-7.82,11.13c-1.89-0.85-3.44-1.56-5.17-2.34
		c0.81-4.28,1.56-8.29,2.38-12.64c1.93,0.41,3.62,0.77,5.32,1.14C864,235.61,865.76,236.51,867.53,237.42z"/>
	<path class="st0" d="M879.55,245.43c-2.98,2.95-5.77,6.15-9.07,8.69c-0.79,0.61-3.26-0.98-5.1-1.6c1.36-3.81,2.22-7.02,3.7-9.92
		c0.54-1.05,2.56-1.35,3.9-1.99C875.17,242.21,877.36,243.82,879.55,245.43z"/>
	<path class="st0" d="M792.05,235.02c1.38-0.51,2.76-1.03,4.75-1.77c0.86,4.41,1.67,8.54,2.53,12.88c-1.63,0.81-3.07,1.51-5.17,2.55
		c-2.61-3.91-5.15-7.71-7.69-11.51C788.33,236.46,790.19,235.74,792.05,235.02z"/>
	<path class="st0" d="M760.21,275.59c0.73,0.86,2.05,1.72,2.05,2.59c0,1.8-0.69,3.6-1.1,5.4c-4.23-1.21-8.46-2.42-12.7-3.63
		c0.92-2.12,1.85-4.24,2.77-6.36c0.85-0.74,1.7-1.47,2.49-2.16c2.27,1.48,4.46,2.91,6.64,4.33L760.21,275.59z"/>
	<path class="st0" d="M883.47,267.84c1.94-1.95,3.82-3.97,5.85-5.82c1.27-1.16,2.78-2.07,4.18-3.09c1.18,2.05,2.36,4.1,3.53,6.14
		c0.54,0.97,1.09,1.93,1.64,2.91c-13.35,6.4-12.96,5.97-15.07-0.29L883.47,267.84z"/>
	<path class="st0" d="M905.7,280.5c-3.96,1.05-7.89,2.25-11.9,3.03c-0.75,0.15-2.27-1.23-2.63-2.2c-0.35-0.93-0.06-2.67,0.64-3.34
		c2.52-2.4,5.32-4.51,8.29-6.95c1.8,2.73,3.46,5.26,5.13,7.8C905.39,279.39,905.55,279.94,905.7,280.5z"/>
	<path class="st0" d="M768.25,250.61c1.15-0.62,2.29-1.25,3.8-2.07c2.15,3.63,4.31,7.29,6.68,11.3c-1.35,1.27-2.54,2.39-3.64,3.42
		c-3.41-1.79-6.5-3.41-9.6-5.02c-0.04-1.59-0.07-3.19-0.11-4.78C766.34,252.5,767.3,251.56,768.25,250.61z"/>
	<path d="M121.11,299.23c0,2.5,0,5.1,0,8.03c-4.03-1.34-6.3-6.99-11.53-3.83c0-3.08,0-5.88,0-9.39c2.28,0.98,4.19,1.78,6.08,2.62
		C117.43,297.47,119.19,298.33,121.11,299.23z"/>
	<path d="M765.39,253.45c0.04,1.59,0.07,3.19,0.11,4.78c-0.13,0.19-0.25,0.38-0.38,0.57c1.48,2.49,2.97,4.99,4.45,7.48
		c-0.17,0.16-0.34,0.32-0.51,0.48c-2.77-2.74-5.55-5.49-8.32-8.23c-0.31-1.49-0.61-2.99-0.92-4.48l-0.04,0.04
		C762.15,258.29,763.54,253.84,765.39,253.45z"/>
	<path d="M910.83,265.34c-1.83,1.4-2.86,2.79-3.9,2.79c-0.93,0.01-2.71-1.63-2.61-2.34c0.16-1.13,1.41-2.7,2.47-2.94
		C907.67,262.66,908.92,264.1,910.83,265.34z"/>
	<path d="M901.73,252.54c-2.07,1.19-3.24,2.35-4.43,2.38c-0.79,0.02-2.42-1.86-2.24-2.42c0.37-1.14,1.65-2.62,2.68-2.73
		C898.71,249.67,899.85,251.15,901.73,252.54z"/>
	<path d="M759.82,254.04c-2.28,0.51-4.94,2.39-6.23-1.18c-0.28-0.77,1.01-2.1,1.58-3.17c1.53,1.47,3.06,2.93,4.6,4.4
		C759.78,254.08,759.82,254.04,759.82,254.04z"/>
	<path d="M745.05,281.05c-0.94,0.3-1.88,0.88-2.8,0.84c-1.56-0.07-3.11-0.53-4.66-0.83c0.27-1.03,0.54-2.06,0.81-3.09
		c1.49,0.46,3.03,0.82,4.45,1.43c0.79,0.34,1.41,1.11,2.13,1.67C745,281.05,745.05,281.05,745.05,281.05z"/>
	<path d="M909.4,281.35c0.75-1.01,1.32-2.32,2.31-2.95c0.93-0.58,2.61-0.93,3.41-0.46c0.73,0.43,1.3,2.39,0.91,3.15
		c-0.42,0.81-2.04,1.38-3.13,1.38c-1.2,0-2.41-0.76-3.62-1.2C909.27,281.26,909.4,281.35,909.4,281.35z"/>
	<path d="M750.35,267.52c-2.13-0.1-5.08,2.42-5.93-1.6c-0.19-0.88,0.94-2.81,1.74-2.98c3.89-0.82,3.18,2.71,4.04,4.75
		C750.2,267.69,750.35,267.52,750.35,267.52z"/>
	<path d="M909.04,342.14c1.07-0.41,2.18-1.22,3.21-1.14c1.41,0.12,2.76,0.91,4.13,1.42c-0.38,1.01-0.83,2.9-1.13,2.88
		c-1.42-0.11-2.88-0.6-4.18-1.25c-0.77-0.38-1.26-1.31-1.91-1.97C909.14,342.09,909.04,342.14,909.04,342.14z"/>
	<path d="M923.15,311.87c-1.98,1.19-3.11,2.42-4.17,2.35c-0.89-0.06-2.52-1.83-2.35-2.45c0.31-1.15,1.59-2.64,2.65-2.8
		C920.16,308.84,921.3,310.4,923.15,311.87z"/>
	<path d="M771.59,240.85c-1.76,1.35-2.75,2.67-3.49,2.54c-1.14-0.19-2.12-1.38-3.17-2.14c0.82-0.99,1.54-2.62,2.49-2.77
		C768.39,238.32,769.6,239.63,771.59,240.85z"/>
	<path d="M738.59,311.68c-1.89,1.27-2.97,2.52-4.1,2.57c-0.81,0.03-2.47-1.68-2.35-2.38c0.2-1.13,1.46-2.77,2.42-2.88
		C735.55,308.87,736.71,310.34,738.59,311.68z"/>
	<path d="M862.57,224.87c-1.98,1.31-3.15,2.68-4.17,2.58c-0.96-0.09-2.23-1.64-2.47-2.74c-0.13-0.61,1.56-2.29,2.43-2.28
		C859.47,222.43,860.58,223.64,862.57,224.87z"/>
	<path d="M799.33,224.73c-1.85,1.37-2.98,2.84-3.89,2.72c-1.06-0.14-1.92-1.68-2.87-2.61c0.84-0.85,1.66-2.37,2.53-2.4
		C796.19,222.4,797.33,223.57,799.33,224.73z"/>
	<path class="st0" d="M655.79,406.51c-1.75,0-4.68,0-7.45,0c0.33-6.55,0.43-12.92,1.03-19.24c0.45-4.79-3.11-6.11-6.06-6.09
		c-2.69,0.02-6.07,1.42-5.56,6.02c0.71,6.32,0.75,12.72,1.09,19.29c-2.45,0-5.43,0-8.71,0c-0.15-7.68,4.61-15.89-0.82-23.02
		c0.7-1.95,1.96-4.03,2.13-6.21c0.43-5.23,0.25-10.5,0.56-15.74c0.06-0.97,1.26-1.87,1.93-2.81c0.92,0.89,2.32,1.63,2.64,2.7
		c0.56,1.85,0.44,3.9,0.66,6.49c4.14-0.46,8.19-0.92,12.68-1.42c0.32-3.62,0.49-7.16,1.03-10.65c0.15-1,1.35-1.84,2.07-2.75
		c0.84,0.82,2.19,1.53,2.41,2.49c0.51,2.21,0.46,4.55,0.69,7.5c7.07-0.83,13.95-1.64,21.24-2.5c0.26-3.44,0.33-6.83,0.88-10.13
		c0.17-1.03,1.63-1.85,2.5-2.76c0.72,0.9,1.93,1.71,2.1,2.7c1.53,9.09,1.47,9.1,10.88,9.1c4.34,0,8.69-0.11,13.03,0.04
		c2.92,0.11,4.35-0.86,4.18-3.95c-0.1-1.8-0.07-3.68,0.38-5.4c0.25-0.96,1.48-1.67,2.27-2.5c0.8,0.82,2.18,1.56,2.31,2.48
		c0.47,3.38,0.53,6.81,0.76,10.36c7.21,0.88,14.12,1.72,21.36,2.61c0.17-2.79,0.11-5.1,0.55-7.31c0.21-1.02,1.41-1.84,2.16-2.75
		c0.85,0.96,2.29,1.82,2.46,2.89c0.53,3.34,0.59,6.76,0.86,10.43c4.19,0.53,8.3,1.04,12.75,1.6c0.24-2.35,0.19-4.51,0.75-6.49
		c0.3-1.08,1.64-1.87,2.5-2.78c0.72,0.9,2.02,1.77,2.07,2.71c0.31,5.43,0.17,10.88,0.53,16.3c0.12,1.88,1.22,3.7,2.01,5.97
		c-5.28,6.65-0.91,14.88-0.53,22.87c-3.23,0-6.2,0-8.83,0c0.34-6.6,0.42-13.07,1.08-19.49c0.48-4.6-3.05-5.98-5.65-5.94
		c-2.86,0.04-6.57,1.29-6.05,6.17c0.67,6.3,0.75,12.65,1.1,19.19c-2.71,0-5.63,0-8.39,0c0.33-6.49,0.79-12.81,0.94-19.14
		c0.16-6.67-2.6-9.55-9.43-9.5c-2.86,0.02-5.91,0.77-8.49,2c-1.49,0.71-3.12,3.02-3.14,4.62c-0.09,7.3,0.36,14.61,0.63,22.07
		c-2.39,0-5.36,0-8.07,0c0.36-7.2,0.87-14.29,1.04-21.4c0.18-7.14-1.85-9.95-8.78-10.37c-4.81-0.29-9.73,1-14.58,1.71
		c-3.46,0.51-4.5,2.73-4.31,6.1c0.46,7.92,0.67,15.86,0.99,23.95c-2.53,0-5.5,0-8.2,0c0.33-6.49,0.79-12.93,0.96-19.37
		c0.16-6.25-1.55-8.81-7.57-9.16c-3.92-0.23-8.02,1.25-11.87,2.5c-0.93,0.3-1.6,2.72-1.64,4.19
		C655.7,391.89,655.79,399.08,655.79,406.51z"/>
	<path class="st0" d="M311.88,406.46c-16.88,0-33.17,0-49.79,0c-0.62-6.54-1.22-12.83-1.71-18.01c2.91-0.63,4.95-1.5,6.93-1.39
		c2.41,0.13,4.86,1.74,7.14,1.47c1.68-0.2,4.16-2.16,4.5-3.72c1.09-4.99,1.34-10.17,1.93-15.27c0.09-0.8-0.01-1.88,0.46-2.34
		c4.08-3.99,3.32-9.02,3.31-14.13c-0.97,0.28-1.74,0.5-4.01,1.15c2.8-4.77,4.92-8.4,7.13-12.15c1.54,2.04,3,3.78,4.22,5.68
		c0.58,0.91,1.16,2.23,0.94,3.18c-0.78,3.4-2,6.7-2.83,10.09c-0.23,0.93-0.01,2.39,0.6,3.02c2.93,2.99,2.09,6.56,2.29,10.14
		c0.23,4.16,1.39,8.28,2.3,12.39c0.15,0.69,1.07,1.71,1.66,1.72c5.26,0.13,10.53,0.08,16.85,0.08
		C313.25,393.43,312.58,399.77,311.88,406.46z"/>
	<path class="st0" d="M416.54,380.13c-0.51,0.55-1.01,1.57-1.52,1.58c-8.71,0.1-17.41,0.07-27.18,0.07c0.5-7,0.94-14.87,1.66-22.71
		c0.43-4.71,1.15-9.41,2.04-14.05c0.18-0.95,1.68-1.65,2.57-2.47c0.52,1.09,1.04,2.17,1.57,3.26c3.26,5.39,6.52,10.79,9.79,16.17
		C409.15,368.04,412.85,374.08,416.54,380.13z"/>
	<path class="st0" d="M443.54,388.24c-0.14,1.22-0.3,2.68-0.52,4.54c-6.79,0-13.45,0-20.06,0c-2.54,7.12-2.54,6.98-10.76,6.71
		c-4.15-0.14-8.32,0.34-12.64,0.54c-1.65,6.7-1.65,6.7-7.18,6.44c-0.71-2.83-1.38-5.77-2.2-8.66c-0.78-2.73-1.72-5.42-3.06-9.57
		C406.56,388.24,424.77,388.24,443.54,388.24z"/>
	<path class="st0" d="M506.96,385.44c-7.7-0.6-14.82-1.15-22.24-1.73c-0.94-5.69-1.06-11.02,4.06-14.91
		c3.99-3.03,8.44-3.27,12.66-0.74C508,372,507.59,378.42,506.96,385.44z"/>
	<path class="st0" d="M366.82,391.79c-1.13,2.07-2.29,4.11-3.36,6.2c-0.51,1-1.21,2.13-1.15,3.16c0.33,5.14-2.41,5.94-6.79,5.66
		c-5.28-0.35-10.6-0.08-16.6-0.08c0-3.3-0.19-6.25,0.11-9.15c0.1-0.95,1.32-2.38,2.23-2.56c8.12-1.57,16.28-2.91,24.43-4.31
		C366.07,391.06,366.44,391.42,366.82,391.79z"/>
	<path class="st0" d="M350.27,386.7c7.05-8.34,14.06-16.71,21.17-25c1.28-1.49,2.94-2.65,4.42-3.96
		c-2.49,8.56-4.96,17.13-7.53,25.66c-0.19,0.64-1.01,1.48-1.61,1.56C361.24,385.62,355.75,386.14,350.27,386.7z"/>
	<path class="st0" d="M828.32,397.17c3.66-0.37,6.48-0.57,9.27-0.97c3.64-0.53,4.44,0.71,3.29,4.15c-0.45,1.36,0.13,3.2,0.7,4.64
		c0.12,0.3,2.27-0.2,3.48-0.32c-0.19-1.58,0.19-3.7-0.68-4.65c-2.84-3.08-2.26-4.52,1.66-5.26c1.95-0.36,3.87-0.88,6.16-1.42
		c0,4.41,0,8.49,0,13c-7.37,0-14.77,0-22.2,0C829.46,403.43,828.92,400.44,828.32,397.17z"/>
	<path class="st0" d="M440.08,380.67c-3.17-0.14-6.35-0.27-9.52-0.41c-6.57-7.6-13.2-15.14-19.68-22.81
		c-4.02-4.76-7.82-9.72-11.71-14.59c0.67-0.08,1.33-0.17,2-0.25C414.13,355.29,427.11,367.98,440.08,380.67z"/>
	<path class="st0" d="M440.08,380.67c-12.97-12.69-25.95-25.38-38.92-38.07c-1.01-1.3-2.01-2.6-3.02-3.9
		c6.29,5.09,12.67,10.07,18.84,15.31c9.23,7.84,18.3,15.86,27.44,23.81c0.18,1.17,0.36,2.34,0.54,3.51
		C443.33,381.11,441.71,380.89,440.08,380.67z"/>
	<path class="st0" d="M399.16,342.86c3.9,4.87,7.69,9.83,11.71,14.59c6.48,7.67,13.11,15.21,19.68,22.81
		c-2.51,3.61-4.4,0.39-6.49-0.59c-5.97-7.67-11.8-15.45-17.96-22.97c-3.18-3.88-6.94-7.28-10.43-10.9
		c-0.22-0.45-0.97-1.76-1.57-3.26c-0.85-2.12-1.4-4.63,0.29-5.65c0.28,0.28,0.56,0.57,0.85,0.85c0,0-0.14-0.12-0.14-0.12
		C396.46,339.37,397.81,341.11,399.16,342.86z"/>
	<path class="st0" d="M395.68,345.81c3.5,3.62,7.25,7.02,10.43,10.9c6.16,7.51,11.99,15.3,17.96,22.97
		c-1.41,2.71-3.06,2.81-7.53,0.47c-3.69-6.05-7.39-12.1-11.07-18.16C402.2,356.59,398.94,351.2,395.68,345.81z"/>
	<path class="st0" d="M840.14,394.64c-4.24,0.39-7.65,0.7-11.92,1.08c0.73-4.16,1.16-7.72,2.09-11.14c0.28-1.02,1.94-2.24,3.02-2.3
		c1.03-0.06,2.65,1.06,3.1,2.07C837.84,387.5,838.81,390.84,840.14,394.64z"/>
	<path class="st0" d="M911.01,313.1c-0.33,4.24-0.61,7.77-0.92,11.76c-3.97-1.37-7.31-2.27-10.38-3.73
		c-1.04-0.5-1.92-2.45-1.89-3.71c0.03-0.93,1.53-2.35,2.6-2.61C903.62,314.03,906.92,313.72,911.01,313.1z"/>
	<path class="st0" d="M813.78,228.61c4.08-0.41,7.61-0.77,11.79-1.19c-0.75,4.36-1.23,8.07-2.13,11.68
		c-0.21,0.85-1.8,1.82-2.82,1.89c-0.99,0.07-2.66-0.67-3-1.49C816.16,236.07,815.1,232.47,813.78,228.61z"/>
	<path class="st0" d="M842.91,394.46c0-5.14,0-9.24,0-13.96c1.87,0,4.85-0.66,5.29,0.12c1.82,3.21,2.86,6.86,4.19,10.34
		C849.41,392.06,846.43,393.16,842.91,394.46z"/>
	<path class="st0" d="M743,323.33c0-3.27,0-6.53,0-10.18c4.03,0.6,7.45,1.04,10.84,1.62c3.61,0.62,2.74,3.42,2.05,5.42
		c-0.66,1.93-10.86,4-13.02,3.01C742.87,323.18,743,323.33,743,323.33z"/>
	<path class="st0" d="M910.01,298.38c0.35,3.88,0.67,7.4,1.06,11.67c-4.19-0.59-7.87-0.95-11.46-1.74c-0.82-0.18-1.87-1.85-1.84-2.8
		c0.04-1.16,0.83-2.89,1.78-3.33C902.68,300.74,906.01,299.78,910.01,298.38z"/>
	<path class="st0" d="M742.89,300.06c2.15-1.01,12.3,1.03,13,3c0.72,2,1.53,4.79-2.05,5.41c-3.39,0.59-6.81,1.03-10.81,1.63
		c0-3.67,0-6.94-0.01-10.2C743.02,299.91,742.89,300.06,742.89,300.06z"/>
	<path class="st0" d="M840.1,228.77c-1.54,4.36-2.96,8.36-4.33,12.23c-5.76-0.14-7.17-2.98-6.87-13.26
		c0.76-0.05,1.57-0.23,2.35-0.14C834.01,227.91,836.77,228.32,840.1,228.77z"/>
	<path class="st0" d="M908.06,336.26c-1.25,1.44-2.21,3.09-4.63,1.29c-2.51-1.87-5.41-3.22-8.47-4.98c0.34-1.57,0.68-3.11,1.05-4.82
		c4.31,0,8.43,0,13.01,0c-0.39,3-0.75,5.84-1.11,8.68C907.91,336.42,908.06,336.26,908.06,336.26z"/>
	<path class="st0" d="M744.99,289.9c0.89-1.7,1.77-3.41,2.87-5.51c3.58,2.02,7.14,4.03,11,6.2c-0.33,1.64-0.64,3.18-0.98,4.89
		c-4.35,0-8.48,0-12.73,0c0-1.97,0-3.87-0.01-5.75C745.14,289.73,744.99,289.9,744.99,289.9z"/>
	<path class="st0" d="M879.2,263.29c-4.7-4.11-4.7-4.11,2.94-14.8c2.47,2.61,4.91,5.18,7.8,8.23
		C886.49,258.83,882.92,261.01,879.2,263.29z"/>
	<path class="st0" d="M882.2,307.77c0,2.8,0,5.03,0,7.67c-4.61-0.33-8.88-0.47-13.08-1.07c-0.95-0.13-2.33-1.86-2.31-2.83
		c0.02-0.95,1.47-2.53,2.47-2.68C873.35,308.27,877.49,308.12,882.2,307.77z"/>
	<path class="st0" d="M782.31,277.68c1.46-1.3,2.91-2.6,5.48-4.9c3.15,4.33,6.26,8.62,9.38,12.91c-0.52,0.58-1.04,1.17-1.55,1.75
		c-4.37-3.31-8.75-6.63-13.12-9.94L782.31,277.68z"/>
	<path class="st0" d="M861.54,267.52c1.1,1.35,2.2,2.71,3.92,4.81c-3.96,3.34-7.96,6.72-11.96,10.1c-0.64-0.62-1.29-1.24-1.93-1.86
		c0.1-4.67,6.44-12.72,10.15-12.87L861.54,267.52z"/>
	<path class="st0" d="M800.61,282.45c-4.05-3.27-8.1-6.55-12.35-9.98c1.69-1.99,2.93-3.45,4.17-4.92c0,0-0.17,0.18-0.17,0.18
		c0.64-0.1,1.7-0.47,1.84-0.25c2.81,4.32,5.52,8.71,8.25,13.08C801.78,281.2,801.2,281.82,800.61,282.45z"/>
	<path class="st0" d="M771.67,315.43c0-2.64,0-4.87,0-7.61c4.65,0.33,9.07,0.51,13.43,1.07c0.85,0.11,2.09,1.71,2.1,2.64
		c0.01,0.96-1.15,2.69-1.96,2.79C780.85,314.91,776.42,315.09,771.67,315.43z"/>
	<path class="st0" d="M778.61,339.93c-0.36-1.23-0.72-2.46-1.22-4.16c3.72-1.76,7.45-3.73,11.37-5.24c1.18-0.46,2.86,0.37,4.31,0.62
		c0.11,0.51,0.21,1.01,0.32,1.52c-3.86,3.33-7.72,6.66-11.56,9.98c-1.52-1.29-2.45-2.09-3.39-2.88
		C778.44,339.76,778.61,339.93,778.61,339.93z"/>
	<path class="st0" d="M870.43,276.48c0.05,1.15,0.57,3,0.07,3.35c-3.89,2.67-7.97,5.05-12,7.53c-0.74-0.6-1.49-1.21-2.23-1.81
		c3.24-4.18,6.49-8.36,9.8-12.63c2.05,1.69,3.3,2.71,4.54,3.73L870.43,276.48z"/>
	<path class="st0" d="M805.54,278.5c-3.13-4.58-6.26-9.16-9.4-13.74c0,0-0.12,0.13-0.12,0.13c2.07-0.87,4.15-1.74,7.12-2.99
		c1.82,5,3.58,9.81,5.33,14.62C807.49,277.18,806.52,277.84,805.54,278.5z"/>
	<path class="st0" d="M870.58,346.6c-1.23,1.01-2.45,2.03-4.19,3.46c-3.51-3.86-6.99-7.7-10.47-11.53c0.45-0.57,0.9-1.13,1.34-1.7
		c1.31-0.05,2.92-0.61,3.87-0.06c3.01,1.76,5.92,3.76,8.54,6.05c0.79,0.69,0.51,2.59,0.73,3.94
		C870.41,346.77,870.58,346.6,870.58,346.6z"/>
	<path class="st0" d="M853.45,340.74c3.99,3.35,7.98,6.7,11.95,10.03c-4.79,5.97-5.78,6.08-9.37,0.69c-1.8-2.71-2.95-5.85-4.4-8.8
		C852.23,342.02,852.84,341.38,853.45,340.74z"/>
	<path class="st0" d="M775.97,334.35c-0.7-2.34-1.4-4.68-2.47-8.3c5.88-0.66,11.26-1.26,16.63-1.86c-0.04,0.76-0.08,1.52-0.11,2.27
		c-3.06,1.87-6.09,3.81-9.2,5.6c-1.54,0.89-3.23,1.52-4.85,2.26V334.35z"/>
	<path class="st0" d="M775.97,288.94c3.61,1.64,7.28,3.17,10.81,4.98c1.33,0.68,2.33,2.02,3.48,3.06c-0.24,0.73-0.48,1.45-0.71,2.18
		c-5.17-0.68-10.34-1.36-16.01-2.11c1.04-3.45,1.74-5.78,2.44-8.11C775.97,288.93,775.97,288.94,775.97,288.94z"/>
	<path class="st0" d="M846.74,277.7c-0.3-1.52-1.25-3.28-0.79-4.52c1.36-3.68,3.28-7.15,5.12-10.99c1.69,0.58,3.18,1.1,4.67,1.61
		l-0.15-0.17c0.53,0.59,1.36,1.09,1.55,1.77c0.65,2.4-7.32,12.06-10.19,12.54C846.96,277.96,846.74,277.7,846.74,277.7z"/>
	<path class="st0" d="M792.47,292.36c-1.31,0.12-2.82,0.72-3.91,0.29c-3.69-1.46-7.23-3.29-11.08-5.1c0.39-1.48,0.74-2.85,1.1-4.21
		c0,0-0.18,0.17-0.18,0.17c0.93-0.81,1.87-1.61,3.38-2.92c3.84,3.3,7.72,6.63,11.6,9.96C793.08,291.15,792.78,291.76,792.47,292.36z
		"/>
	<path class="st0" d="M840.31,274.46c-0.49-1.36-1.59-2.84-1.35-4.06c0.77-3.9,2.04-7.7,3.31-12.21c2.45,0.95,4.66,1.81,7.19,2.79
		c-1.88,4.13-3.41,8.01-5.43,11.61c-0.55,0.99-2.55,1.17-3.89,1.73L840.31,274.46z"/>
	<path class="st0" d="M831.84,272.24c0-5.06,0-10.13,0-15.93c3.51,0.62,5.82,1.02,8.5,1.49c-1.37,5.19-2.61,9.92-3.92,14.89
		c-1.81-0.18-3.27-0.33-4.72-0.48L831.84,272.24z"/>
	<path class="st0" d="M876.55,337.74c-1.22,1.47-2.45,2.93-4.25,5.1c-3.96-3.43-7.84-6.79-11.72-10.15
		c0.29-0.57,0.58-1.14,0.88-1.72c0.84-0.37,1.91-1.26,2.49-1.01c3.91,1.66,7.76,3.49,11.53,5.47c0.58,0.3,0.62,1.63,0.91,2.48
		L876.55,337.74z"/>
	<path class="st0" d="M822.57,272.2c-3.8,1.16-5.89,0.08-6.46-4.15c-0.44-3.26-1.62-6.43-2.62-10.22c2.57-0.49,4.9-0.94,7.66-1.47
		c0.47,5.59,0.9,10.7,1.33,15.82L822.57,272.2z"/>
	<path class="st0" d="M863.73,296.89c4.33-2.69,8.66-5.38,13.28-8.25c0.9,1.74,1.42,2.56,1.77,3.46c0.47,1.22,0.81,2.5,1.61,5.03
		c-5.61,0.64-10.76,1.22-15.91,1.81C864.22,298.25,863.98,297.57,863.73,296.89z"/>
	<path class="st0" d="M876.37,285.33c-0.01,0.33,0.1,0.73-0.04,0.98c-1.68,3-11.5,7.14-14.75,6.25c-0.32-0.63-0.63-1.26-0.95-1.89
		c3.88-3.44,7.75-6.87,11.64-10.32c1.86,2.24,3.07,3.69,4.28,5.15C876.55,285.5,876.37,285.33,876.37,285.33z"/>
	<path class="st0" d="M813.85,274.32c-1.42-0.64-3.5-0.9-4.14-1.99c-1.98-3.39-3.41-7.11-5.32-11.27c2.34-0.94,4.5-1.8,7.15-2.87
		c1.32,4.66,2.65,8.86,3.62,13.14c0.2,0.88-0.95,2.07-1.47,3.12C813.68,274.45,813.85,274.32,813.85,274.32z"/>
	<path class="st0" d="M864.49,324.17c5.04,0.61,10.09,1.21,15.83,1.9c-1,3.2-1.65,5.31-2.74,8.8c-5-3.1-9.41-5.84-13.81-8.57
		C864,325.59,864.24,324.88,864.49,324.17z"/>
	<path class="st0" d="M865.86,304.07c0.47-0.79,0.79-2.08,1.44-2.28c4.27-1.27,8.61-2.3,13.48-3.55c0.42,2.66,0.77,4.85,1.2,7.56
		c-4.81,0.47-9.08,1.08-13.36,1.14c-0.95,0.01-1.92-1.96-2.88-3.02L865.86,304.07z"/>
	<path class="st0" d="M865.7,319.38c0.43-1.03,0.87-2.06,1.4-3.32c4.68,0.41,9.42,0.83,14.74,1.31c-0.29,2.54-0.53,4.72-0.87,7.71
		c-5.08-1.34-9.63-2.48-14.13-3.8c-0.5-0.15-0.68-1.34-1.02-2.05L865.7,319.38z"/>
	<path class="st0" d="M787.25,315.94c0.18,2.15,0.3,3.58,0.43,5.25c-4.72,1.26-9.2,2.45-14.33,3.81c-0.53-2.36-1.02-4.5-1.68-7.46
		C776.94,317,781.79,316.5,787.25,315.94z"/>
	<path class="st0" d="M787.72,302.04c-0.19,1.74-0.34,3.17-0.56,5.15c-5.12-0.45-9.97-0.87-15.21-1.33c0.34-2.71,0.6-4.79,0.97-7.69
		C778.08,299.52,782.79,300.75,787.72,302.04z"/>
	<path class="st0" d="M823.09,256.47c2.85,0,4.81,0,7.55,0c-0.35,4.99-0.69,9.8-1.04,14.92c-1.74,0.11-3.14,0.21-5.21,0.34
		C823.96,266.65,823.55,261.83,823.09,256.47z"/>
	<path class="st0" d="M831.6,351.06c1.46-0.16,2.93-0.31,4.3-0.46c4.37,9.45,3.6,13.98-3.32,16.14c-0.29-5.35-0.57-10.52-0.85-15.7
		C831.73,351.05,831.6,351.06,831.6,351.06z"/>
	<path class="st0" d="M848.39,345.07c3.86,3.13,6.77,6.8,6.12,12.11c-0.18,1.42-1.23,2.73-1.87,4.09c-0.67-0.03-1.33-0.05-2-0.08
		c-1.71-4.82-3.42-9.63-5.13-14.45C846.47,346.2,847.43,345.63,848.39,345.07z"/>
	<path class="st0" d="M855.74,263.8c-1.05-1.13-2.11-2.26-3.8-4.07c2.28-2.83,4.79-5.96,7.49-9.32c1.43,0.79,2.66,1.47,4.17,2.32
		c-1.01,2.78-2.19,5.31-2.84,7.98c-0.75,3.05-2.38,3.86-5.18,2.92C855.59,263.63,855.74,263.8,855.74,263.8z"/>
	<path class="st0" d="M841.37,256.64c-3.47-0.63-5.72-1.04-8.85-1.61c1.29-3.72,2.39-7.26,3.82-10.66c0.26-0.62,2.01-1.05,2.9-0.85
		c0.83,0.19,1.99,1.32,2.04,2.1C841.5,249.06,841.37,252.51,841.37,256.64z"/>
	<path class="st0" d="M792.44,267.56c-1.65,0.9-3.3,1.8-5.55,3.02c-2.03-3.31-4.14-6.76-6.85-11.19c2.19-0.54,4.84-1.71,5.22-1.2
		c2.34,3.16,8.92,3.35,7.01,9.54C792.27,267.74,792.44,267.56,792.44,267.56z"/>
	<path class="st0" d="M870.6,276.65c-0.8-1.54-1.6-3.09-2.64-5.09c3.31-2.01,6.67-4.05,10.41-6.32c1.07,1.21,2.11,2.38,3.21,3.62
		c-2.03,2.41-4.06,4.41-5.6,6.73c-1.68,2.52-3.43,2.28-5.56,0.89C870.43,276.48,870.6,276.65,870.6,276.65z"/>
	<path class="st0" d="M770.03,307.36c0,2.98,0,5.38,0,8.5c-3.77-0.53-7.33-0.9-10.81-1.64c-0.74-0.16-1.75-1.7-1.66-2.49
		c0.12-1.02,1.09-2.56,1.94-2.76C762.84,308.21,766.27,307.89,770.03,307.36z"/>
	<path class="st0" d="M883.76,315.92c0-3.2,0-5.47,0-8.51c3.76,0.51,7.29,0.85,10.76,1.55c0.75,0.15,1.79,1.64,1.72,2.43
		c-0.09,1.04-0.99,2.67-1.82,2.86C891.09,315.04,887.65,315.36,883.76,315.92z"/>
	<path class="st0" d="M782.49,277.5c-1.93-1.13-4.04-2.03-5.74-3.44c-1.63-1.34-2.82-3.2-4.4-5.05c0.91-1.21,1.77-2.34,2.9-3.84
		c3.65,2.17,7.12,4.23,10.69,6.35c-1.38,2.34-2.5,4.25-3.62,6.15C782.31,277.68,782.49,277.5,782.49,277.5z"/>
	<path class="st0" d="M775.97,288.93c-1.35,2.17-2.7,4.33-4.06,6.51c-8.13-1.89-11.24-4.99-8.95-9.95c4.24,1.12,8.62,2.28,13,3.44
		C775.97,288.94,775.97,288.93,775.97,288.93z"/>
	<path class="st0" d="M861.72,267.7c0.23-1.52-0.06-3.5,0.79-4.47c1.94-2.22,4.45-3.94,6.67-5.82c4.85,2.54,4.19,5.57-2.69,12.94
		c-1.64-0.94-3.3-1.89-4.95-2.83C861.54,267.52,861.72,267.7,861.72,267.7z"/>
	<path class="st0" d="M878.75,288.15c4.37-0.88,8.21-1.66,12.3-2.49c0.65,1.48,1.23,2.8,1.94,4.43c-3.67,2.09-7.1,4.04-11.11,6.32
		C880.77,293.48,879.87,291.12,878.75,288.15z"/>
	<path class="st0" d="M813.03,256.64c0-4.45,0-8.45,0-12.52c4.74-1.32,5.9,0.17,7.82,10.75
		C818.48,255.41,816.07,255.95,813.03,256.64z"/>
	<path class="st0" d="M775.97,334.33c-4.26,1.14-8.53,2.28-12.67,3.39c-3.05-4.99-1.83-6.39,8.4-10.16
		c1.41,2.24,2.84,4.51,4.27,6.79C775.97,334.35,775.97,334.33,775.97,334.33z"/>
	<path class="st0" d="M878.76,335.15c1.06-2.94,1.83-5.1,2.97-8.24c3.83,2.09,7.34,4,11.16,6.08c-0.58,1.6-1.06,2.94-1.65,4.55
		C887.15,336.76,883.29,336.02,878.76,335.15z"/>
	<path class="st0" d="M811.65,256.78c-2.85,1.07-5.12,1.93-8.16,3.07c-0.76-3.82-1.62-7.3-2.03-10.83
		c-0.09-0.81,1.19-2.16,2.14-2.59c0.67-0.3,2.29,0.27,2.72,0.94C808.19,250.3,809.77,253.39,811.65,256.78z"/>
	<path class="st0" d="M849.68,259.55c-2.26-0.82-4.55-1.65-7.54-2.73c2.14-3.81,4.11-7.33,6.04-10.77
		C853.38,247.23,853.8,251.66,849.68,259.55z"/>
	<path class="st0" d="M796.14,264.76c-2.13-3.75-4.25-7.5-6.48-11.44c1.88-1.24,3.07-2.02,4.59-3.01c2.7,3.28,5.26,6.39,7.86,9.56
		c-2.38,1.96-4.23,3.48-6.08,5.01C796.02,264.88,796.14,264.76,796.14,264.76z"/>
	<path class="st0" d="M831.28,254.68c-3.34,0-5.75,0-8.18,0c-0.16-0.73-0.4-1.22-0.33-1.66c0.55-3.4,1.17-6.8,1.8-10.4
		c1.61,0,3.01,0,4.74,0C829.96,246.59,830.59,250.41,831.28,254.68z"/>
	<path class="st0" d="M876.37,337.91c1.3-0.07,2.93-0.68,3.82-0.12c2.36,1.48,4.51,3.37,6.5,5.34c0.58,0.57,0.83,2.27,0.4,2.88
		c-0.59,0.84-2.14,1.8-2.96,1.57c-3.29-0.94-6.45-2.31-9.87-3.6c0.88-2.4,1.58-4.32,2.27-6.23
		C876.55,337.74,876.37,337.91,876.37,337.91z"/>
	<path class="st0" d="M883.52,306.13c-0.52-3.24-0.9-5.64-1.4-8.78c3.84,0,7.28-0.17,10.69,0.11c0.92,0.07,2.26,1.4,2.43,2.33
		c0.15,0.83-0.84,2.39-1.7,2.77C890.55,303.86,887.39,304.79,883.52,306.13z"/>
	<path class="st0" d="M778.58,283.34c-1.04,0.96-2.09,1.91-3.56,3.26c-2.27-1.82-4.95-3.71-7.28-5.96
		c-0.78-0.75-1.27-2.74-0.82-3.55c0.47-0.84,2.43-1.52,3.45-1.24c2.98,0.83,5.83,2.18,8.97,3.42c-0.36,1.58-0.66,2.92-0.96,4.26
		C778.4,283.51,778.58,283.34,778.58,283.34z"/>
	<path class="st0" d="M876.55,285.5c-0.67-1.81-1.33-3.62-2.29-6.23c3.22-1.21,6.48-2.74,9.9-3.53c0.92-0.21,3.2,1.68,3.39,2.84
		c0.42,2.62-8.43,7.76-11.17,6.76C876.37,285.33,876.55,285.5,876.55,285.5z"/>
	<path class="st0" d="M770.23,317.12c0.56,3.12,0.99,5.49,1.58,8.74c-4.03,0-7.59,0.13-11.13-0.1c-0.77-0.05-2.02-1.37-2.04-2.13
		c-0.03-0.98,0.72-2.53,1.55-2.89C763.18,319.41,766.34,318.48,770.23,317.12z"/>
	<path class="st0" d="M771.75,297.37c-0.55,3.16-0.99,5.65-1.53,8.75c-3.78-1.31-7.05-2.32-10.18-3.64
		c-0.76-0.32-1.66-1.84-1.47-2.51c0.28-1,1.43-2.4,2.3-2.48C764.27,297.2,767.72,297.37,771.75,297.37z"/>
	<path class="st0" d="M882.13,325.86c0.44-3.03,0.79-5.42,1.27-8.67c3.95,1.32,7.51,2.38,10.93,3.78c0.61,0.25,1.1,1.99,0.87,2.82
		c-0.24,0.83-1.42,1.92-2.24,1.98C889.52,325.99,886.07,325.86,882.13,325.86z"/>
	<path class="st0" d="M375.92,383.11c2.43-8.77,4.85-17.54,7.28-26.31c0.27,0.06,0.55,0.13,0.82,0.19
		c-1.01,8.25-1.91,16.52-3.19,24.73c-0.16,1.06-2.3,1.81-3.52,2.71C376.85,383.99,376.39,383.55,375.92,383.11z"/>
	<path class="st0" d="M747.93,338.82c-2.91-4.02-1.52-6,2.13-7.53c1.55-0.65,2.55-2.57,4.1-3.28c4.06-1.87,4.15,1.42,4.8,4.56
		C755.44,334.56,751.75,336.65,747.93,338.82z"/>
	<path class="st0" d="M834.07,367.26c2.27,1.77,5.02,3.2,6.63,5.44c1.03,1.43,1.14,4.55,0.24,6.06c-1.05,1.77-3.79,2.38-5.02-0.53
		c-1.27-3.02-2.17-6.19-3.23-9.3C833.15,368.38,833.61,367.82,834.07,367.26z"/>
	<path class="st0" d="M905.04,344.24c-0.85,1.16-1.7,2.33-1.83,2.51c-2.35-0.49-3.96-0.79-5.55-1.18c-2.22-0.54-4.42-1.15-7.74-2.02
		c1.44-1.35,3.32-4,4.14-3.71c3.66,1.32,9.38-1.8,10.83,4.56C904.9,344.4,905.04,344.24,905.04,344.24z"/>
	<path class="st0" d="M506.7,393.25c-7.39,0-14.78,0-22.99,0c1.04-1.71,1.64-3.45,2.17-3.43c6.99,0.26,13.97,0.76,20.95,1.21
		C506.79,391.77,506.74,392.51,506.7,393.25z"/>
	<path class="st0" d="M853.45,340.74c-0.61,0.64-1.22,1.28-1.83,1.92c-3.57-3.84-7.14-7.68-10.71-11.51c0.6-0.54,1.2-1.09,1.8-1.63
		C847,332.5,851.08,335.69,853.45,340.74z"/>
	<path class="st0" d="M856.27,285.54c0.74,0.6,1.49,1.21,2.23,1.81c-3.57,4.31-7.88,7.42-13.02,9.22c-0.45-0.6-0.9-1.21-1.35-1.81
		C848.18,291.7,852.22,288.62,856.27,285.54z"/>
	<path class="st0" d="M851.57,280.58c0.64,0.62,1.29,1.24,1.93,1.86c-2.35,5.09-6.5,8.25-11.47,10.68
		C844.97,288.68,845.94,282.87,851.57,280.58z"/>
	<path class="st0" d="M805.54,278.5c0.98-0.66,1.96-1.32,2.93-1.98c3.95,4.08,5.59,9.09,7.22,14.11c-0.68,0.34-1.37,0.68-2.05,1.02
		C810.94,287.27,808.24,282.88,805.54,278.5z"/>
	<path class="st0" d="M795.61,287.44c0.52-0.58,1.04-1.17,1.55-1.75c1.14,0.27,2.59,0.18,3.37,0.86c3.09,2.7,5.97,5.63,9.13,8.67
		C806.18,296.63,798.93,292.25,795.61,287.44z"/>
	<path class="st0" d="M857.27,336.84c-0.45,0.57-0.9,1.13-1.34,1.7c-3.87-3.45-7.73-6.9-12.2-10.89c1.71-0.58,2.65-1.23,3.02-0.98
		c3.46,2.27,6.89,4.59,10.14,7.14C857.46,334.25,857.16,335.8,857.27,336.84z"/>
	<path class="st0" d="M846.74,277.7c0,0,0.22,0.26,0.21,0.25c0,1.19,0.47,2.67-0.06,3.54c-2.06,3.37-4.43,6.54-6.66,9.74
		c-0.46-0.09-1.01-0.07-1.06-0.23C837.72,287.1,843.3,277.37,846.74,277.7z"/>
	<path class="st0" d="M864.49,324.17c-0.24,0.71-0.48,1.42-0.73,2.13c-4.89,0.28-13.11-3.86-14.4-8.6
		C854.99,320.11,859.74,322.14,864.49,324.17z"/>
	<path class="st0" d="M800.61,282.45c0.58-0.63,1.17-1.26,1.75-1.88c5.5,2.42,6.64,8.08,9.42,12.62
		C807.01,290.62,802.62,287.77,800.61,282.45z"/>
	<path class="st0" d="M831.73,351.05c-1.26-5.29-1.84-10.59-1.25-15.92c0.57-0.09,1.15-0.19,1.72-0.28
		c1.27,4.61,2.54,9.23,3.9,14.14c-1.6,0.74-3.02,1.4-4.47,2.07C831.6,351.06,831.73,351.05,831.73,351.05z"/>
	<path class="st0" d="M743.79,348.27c-1.67,0.67-3.35,1.34-5.52,2.2c-0.11-1.9-0.17-2.96-0.2-3.42c2.98-1.87,5.69-3.56,8.71-5.45
		c1.22,2.73,2.29,5.1,3.96,8.84C747.56,349.45,745.5,348.8,743.79,348.27z"/>
	<path class="st0" d="M870.41,346.77c4.68-3.09,5.49,1.57,7.29,3.23c-1.49,1.48-2.84,2.83-4.64,4.62c-1.21-0.72-3.15-1.87-5.06-3.01
		c0.99-1.91,1.79-3.45,2.58-5C870.58,346.6,870.41,346.77,870.41,346.77z"/>
	<path class="st0" d="M793.38,332.67c-0.11-0.51-0.21-1.02-0.32-1.52c-0.19-0.6-0.64-1.66-0.53-1.72c4.35-2.43,8.75-4.76,13.64-6.17
		C802.66,327.62,798.94,331.43,793.38,332.67z"/>
	<path class="st0" d="M861.45,330.97c-0.29,0.57-0.58,1.14-0.88,1.72c-4.35-0.82-11.47-5.92-12.87-9.21
		C852.45,323.35,860.49,327.73,861.45,330.97z"/>
	<path class="st0" d="M792.47,292.36c0.31-0.6,0.61-1.21,0.92-1.81c4.29,0.89,11.4,6.01,12.79,9.21
		C801.57,299.95,793.49,295.59,792.47,292.36z"/>
	<path class="st0" d="M863.73,296.89c0.25,0.68,0.5,1.36,0.75,2.04c-2.18,1.19-4.27,2.63-6.57,3.5c-2.55,0.97-5.3,1.41-8.2,2.14
		C850.56,300.88,858.75,296.68,863.73,296.89z"/>
	<path class="st0" d="M788.44,307.4c-0.36-3.84,0.3-5.42,3.81-4.22c3.74,1.28,7.6,2.2,11.41,3.27c-0.14,0.71-0.28,1.41-0.42,2.12
		C798.34,308.18,793.43,307.8,788.44,307.4z"/>
	<path class="st0" d="M860.63,290.67c0.32,0.63,0.63,1.26,0.95,1.89c-0.51,0.9-0.8,2.23-1.57,2.63c-3.86,1.96-7.85,3.68-12.24,5.69
		C848.58,296.77,856.02,291.29,860.63,290.67z"/>
	<path class="st0" d="M829.67,272.51c-0.65,5.66-1.2,10.44-1.75,15.22c-0.7-0.05-1.41-0.09-2.11-0.14
		c-0.48-4.78-0.96-9.57-1.5-14.83C826.16,272.67,827.51,272.61,829.67,272.51z"/>
	<path class="st0" d="M848.39,345.07c-0.96,0.56-1.93,1.12-2.89,1.68c-4.34-3.86-5.34-9.18-7.44-14.02c0.7-0.39,1.4-0.77,2.1-1.16
		C842.91,336.08,845.65,340.58,848.39,345.07z"/>
	<path class="st0" d="M831.7,272.21c1.33,0.58,2.66,1.16,4.36,1.91c-1.26,4.72-2.51,9.4-3.76,14.09c-0.65-0.04-1.3-0.09-1.95-0.13
		c-0.23-5.28-0.19-10.55,1.52-15.83C831.84,272.24,831.7,272.21,831.7,272.21z"/>
	<path class="st0" d="M789.02,321.02c-0.37-1.92-0.63-3.27-0.99-5.11c5.34-0.46,10.24-0.87,15.13-1.29
		c0.16,0.68,0.32,1.36,0.47,2.04C798.94,318.05,794.25,319.46,789.02,321.02z"/>
	<path class="st0" d="M789.55,299.16c0.24-0.73,0.48-1.45,0.71-2.18c4.87-0.27,12.98,3.83,14.22,8.54
		C798.94,303.15,794.24,301.15,789.55,299.16z"/>
	<path class="st0" d="M865.83,319.22c-5.59,2.09-10.26-0.88-15.12-2.78c-0.11-0.04-0.01-0.61-0.01-1.79
		c4.51,0.37,9.02,0.59,13.46,1.25c0.67,0.1,1.03,2.28,1.54,3.48C865.7,319.38,865.83,319.22,865.83,319.22z"/>
	<path class="st0" d="M822.48,272.18c0.46,5.28,0.92,10.55,1.39,15.83c-0.7,0.13-1.4,0.26-2.1,0.39c-1.34-4.7-2.68-9.4-4.08-14.3
		c1.81-0.71,3.33-1.3,4.86-1.89C822.57,272.2,822.48,272.18,822.48,272.18z"/>
	<path class="st0" d="M865.74,303.92c0.13,2.21-0.2,3.74-3.11,3.78c-3.94,0.05-7.87,0.62-12.06,0.99c1.59-3.9,11.46-6.59,15.29-4.62
		C865.86,304.07,865.74,303.92,865.74,303.92z"/>
	<path class="st0" d="M840.15,274.33c0.67,0.84,2.1,1.99,1.9,2.48c-1.76,4.35-3.81,8.58-6.13,13.62
		c-2.16-5.51,0.95-14.95,4.39-15.96C840.31,274.46,840.15,274.33,840.15,274.33z"/>
	<path class="st0" d="M813.68,274.45c0.66,0.07,1.81-0.03,1.9,0.22c1.53,4.7,2.93,9.43,4.36,14.16c-0.74,0.28-1.47,0.55-2.21,0.83
		c-2.02-4.31-4.11-8.59-5.94-12.99c-0.18-0.43,1.32-1.55,2.04-2.36C813.85,274.32,813.68,274.45,813.68,274.45z"/>
	<path class="st0" d="M790.01,326.47c0.04-0.76,0.08-1.52,0.11-2.27c0.11-0.56,0.1-1.53,0.36-1.61c4.47-1.39,8.98-2.68,13.96-4.12
		C803.11,322.42,795.04,326.49,790.01,326.47z"/>
	<path class="st0" d="M865.82,314.08c-5.35-0.45-10.19-0.85-15.04-1.25c-0.05-0.75-0.09-1.49-0.14-2.24
		c4.8-0.49,9.61-0.98,14.91-1.53C865.64,310.84,865.71,312.2,865.82,314.08z"/>
	<path class="st0" d="M803.04,312.83c-4.8,0.4-9.61,0.8-14.47,1.21c-1.16-3.4-0.91-5.18,3.03-4.62c3.79,0.54,7.63,0.74,11.46,1.09
		C803.05,311.29,803.05,312.06,803.04,312.83z"/>
	<path class="st0" d="M797.35,337.58c-3.64,2.06-7.27,4.11-10.91,6.17c-0.4-0.73-0.81-1.46-1.21-2.19c3.45-1.93,6.9-3.85,10.36-5.78
		C796.18,336.38,796.76,336.98,797.35,337.58z"/>
	<path class="st0" d="M778.44,339.76c0.06,0.79,0.12,1.57,0.21,2.68c-3.19,0-6.39,0-10.76,0c2.76-2.28,4.9-4.05,7.83-6.47
		c1.07,1.46,1.98,2.71,2.89,3.96C778.61,339.93,778.44,339.76,778.44,339.76z"/>
	<path class="st0" d="M744.35,333.77c0.83,2.7,1.3,4.23,2.05,6.66c-3.13,0-5.76,0-8.39,0c-0.28-0.41-0.56-0.81-0.85-1.22
		C739.32,337.58,741.47,335.95,744.35,333.77z"/>
	<path class="st0" d="M866.85,352.6c1.54,2.45,3.09,4.89,4.63,7.34c-0.18,0.32-0.37,0.64-0.55,0.97c-2.26-0.89-4.88-1.37-6.61-2.87
		c-0.7-0.62,0.54-3.46,0.9-5.29C865.77,352.7,866.31,352.65,866.85,352.6z"/>
	<path class="st0" d="M374.28,395.01c2.04,0,3.87,0,5.78,0c-1.11,3.81-2.1,7.2-3.35,11.51
		C375.82,402.32,375.08,398.83,374.28,395.01z"/>
	<path class="st0" d="M25.64,390.62c0-5.53,0-11.05,0-16.58c0.28-0.02,0.57-0.03,0.85-0.05c0,5.56,0,11.11,0,16.67
		C26.2,390.65,25.92,390.63,25.64,390.62z"/>
	<path class="st0" d="M776.09,248.75c1.92,1.84,3.84,3.68,5.75,5.52c-0.28,1.35-0.57,2.7-0.85,4.04c-0.45,0.05-0.9,0.1-1.34,0.15
		c-1.54-2.59-3.14-5.15-4.54-7.81C774.92,250.29,775.74,249.4,776.09,248.75z"/>
	<path class="st0" d="M754.1,349.74c-4.46,0.01-3.36-4.94-5.77-7.79c2.11-0.52,3.74-0.92,4.42-1.09
		C753.23,344.02,753.64,346.73,754.1,349.74z"/>
	<path class="st0" d="M816.67,241.31c-1.69,0.25-2.76,0.41-4.05,0.6c0-3.44,0-6.57,0-9.71c0.21-0.09,0.42-0.17,0.63-0.26
		C814.32,234.87,815.39,237.79,816.67,241.31z"/>
	<path class="st0" d="M840.52,232.03c1.27,9.78,1.27,9.78-3.19,9.1C838.41,238.03,839.46,235.03,840.52,232.03z"/>
	<path class="st0" d="M812.54,330.71c-1.54,2.17-3.07,4.34-4.96,7.02c-0.93-1.24-2.25-2.6-2.08-2.82c1.59-2.07,3.43-3.94,5.2-5.87
		C811.31,329.6,811.92,330.15,812.54,330.71z"/>
	<path class="st0" d="M837.11,381.94c1.75-0.25,2.81-0.4,4.14-0.59c0,3.41,0,6.51,0,9.61c-0.19,0.09-0.37,0.17-0.56,0.26
		C839.58,388.36,838.47,385.48,837.11,381.94z"/>
	<path class="st0" d="M769.57,266.28c-1.48-2.49-2.97-4.99-4.45-7.48c1.32,0.92,2.62,1.87,3.97,2.74c1.36,0.88,2.77,1.68,4.47,3.88
		C772.23,265.71,770.9,266,769.57,266.28z"/>
	<path class="st0" d="M898.15,309.56c3.23,0.56,6.07,1.05,9.43,1.63C900.35,314.49,898.15,314.17,898.15,309.56z"/>
	<path class="st0" d="M22.17,390.6c0-5.8,0-11.59,0-17.39c0.31-0.01,0.62-0.01,0.93-0.02c0,5.82,0,11.64,0,17.46
		C22.79,390.64,22.48,390.62,22.17,390.6z"/>
	<path class="st0" d="M755.8,309.48c-0.12,4.72-0.12,4.72-10.44,2.01C749.61,310.68,752.49,310.12,755.8,309.48z"/>
	<path class="st0" d="M874.16,258.72c-1.21-1.15-2-1.91-3.01-2.87c2.54-2.23,4.88-4.29,7.22-6.35c0.28,0.16,0.56,0.32,0.84,0.47
		C877.64,252.69,876.08,255.39,874.16,258.72z"/>
	<path class="st0" d="M797.35,337.58c-0.59-0.6-1.18-1.2-1.76-1.8c1.62-1.89,3.25-3.78,4.87-5.66c0.53,0.45,1.07,0.9,1.6,1.35
		C802.16,334.51,801.3,336.97,797.35,337.58z"/>
	<path class="st0" d="M804.57,244.06c-1.37,0.58-2.38,1-3.81,1.61c-0.67-3.49-1.28-6.63-1.88-9.77c0.25-0.13,0.51-0.27,0.76-0.4
		C801.18,238.17,802.71,240.84,804.57,244.06z"/>
	<path class="st0" d="M897.3,271.54c-2.43,1.99-4.85,3.98-7.62,6.25c-0.75-1.13-1.39-2.09-2.28-3.41c3.48-1.32,6.51-2.48,9.54-3.63
		C897.06,271.02,897.18,271.28,897.3,271.54z"/>
	<path class="st0" d="M883.6,267.69c-1.12-0.84-2.23-1.69-4.02-3.04c3.45-2.05,6.21-3.69,10.04-5.97c-2.51,3.73-4.33,6.43-6.15,9.14
		C883.47,267.84,883.6,267.69,883.6,267.69z"/>
	<path class="st0" d="M860.63,249.06c2.33-2.81,4.23-5.11,6.13-7.41c0.3,0.14,0.59,0.28,0.89,0.42c-1.1,2.92-2.2,5.83-3.4,9.02
		C863,250.39,862.03,249.84,860.63,249.06z"/>
	<path class="st0" d="M786.99,241.56c1.98,2.4,3.96,4.79,6.14,7.42c-1.18,0.76-2.11,1.36-3.47,2.24c-1.24-3.3-2.36-6.27-3.48-9.24
		C786.45,241.84,786.72,241.7,786.99,241.56z"/>
	<path class="st0" d="M894.72,334.09c3.06,1.76,5.7,3.28,9.03,5.2C894.01,338.92,892.98,338.34,894.72,334.09z"/>
	<path class="st0" d="M749.64,283.76c10.36,0.8,10.84,1.06,9.77,5.4C756.39,287.49,753.52,285.91,749.64,283.76z"/>
	<path class="st0" d="M815.66,332.54c-0.84,2.16-1.5,4.43-2.65,6.42c-0.3,0.53-2.11,0.2-4.46,0.33c2.3-3.25,3.82-5.39,5.33-7.53
		C814.48,332.02,815.07,332.28,815.66,332.54z"/>
	<path class="st0" d="M750.9,338.76c2.66-1.5,5.32-3,7.99-4.5C761.11,338.25,760.67,338.51,750.9,338.76z"/>
	<path class="st0" d="M828.85,366.58c0-4.66,0-9.33,0-13.99c0.24-0.02,0.49-0.04,0.73-0.06c0.36,4.67,0.72,9.33,1.08,14
		C830.07,366.54,829.46,366.56,828.85,366.58z"/>
	<path class="st0" d="M850.28,240.61c1.27-1.37,2.53-2.75,4.48-4.87c-0.56,3.63-1.02,6.53-1.45,9.35c-5.14,0.67-2.52-2.8-2.88-4.62
		C850.44,240.47,850.28,240.61,850.28,240.61z"/>
	<path class="st0" d="M760.37,275.75c-0.89-1.27-1.77-2.53-3.28-4.69c3.5,1.2,6.22,2.13,9.38,3.21c-0.77,1.34-1.3,2.26-1.81,3.15
		c-1.62-0.67-3.03-1.26-4.44-1.84C760.21,275.59,760.37,275.75,760.37,275.75z"/>
	<path class="st0" d="M825.02,240.01c0.5-3.09,1.01-6.16,1.59-9.73C829.61,239.11,829.41,240.32,825.02,240.01z"/>
	<path class="st0" d="M893.11,285.39c3.54-0.67,6.56-1.24,9.96-1.88C897.37,288.9,894.86,289.48,893.11,285.39z"/>
	<path d="M395.25,337.75c-0.28-0.28-0.56-0.57-0.85-0.85c0,0-0.01,0.01-0.01,0.01C394.68,337.19,394.96,337.47,395.25,337.75z"/>
	<path d="M399.16,342.86c-1.35-1.74-2.7-3.48-4.05-5.23c1.01,0.36,2.02,0.71,3.03,1.07c1.01,1.3,2.01,2.6,3.02,3.9
		C400.49,342.69,399.83,342.77,399.16,342.86z"/>
</g>
<line class="st1" x1="109.57" y1="318.46" x2="109.57" y2="355.27"/>
<line class="st2" x1="110.07" y1="301.77" x2="110.07" y2="340.64"/>
<polyline class="st3" points="394.14,329.47 402.2,335.87 409.88,343.46 448.27,379.65 "/>
<path class="st3" d="M393.7,336.39l9.75,8.42l28.04,27.83l7.85,8.68C439.34,381.32,395.52,336.76,393.7,336.39z"/>
<line class="st4" x1="382.58" y1="341.68" x2="337.28" y2="380.75"/>
<polyline class="st4" points="338.27,390.65 357.51,375.23 367.9,366.06 372.7,360.41 377.36,352.96 380.47,348.71 383.62,346.91 
	"/>
<path class="st5" d="M404.61,354.7l26.81,26.63l-39.96-42.62C391.46,338.7,403.58,355.56,404.61,354.7z"/>
<line class="st1" x1="373.95" y1="421.45" x2="416.54" y2="380.14"/>
<line class="st1" x1="406.58" y1="363.8" x2="406.58" y2="363.8"/>
<path class="st1" d="M391.54,345.02"/>
</svg>
